<svg width="24" height="30" viewBox="0 0 24 30" fill="none" xmlns="http://www.w3.org/2000/svg">
<g id="Frame 1715" filter="url(#filter0_ddddd_487_2870)">
<path id="Vector" d="M12 0.5C10.22 0.5 8.47991 1.02784 6.99987 2.01677C5.51983 3.00571 4.36628 4.41131 3.68509 6.05585C3.0039 7.70038 2.82567 9.50998 3.17294 11.2558C3.5202 13.0016 4.37737 14.6053 5.63604 15.864C6.89471 17.1226 8.49836 17.9798 10.2442 18.3271C11.99 18.6743 13.7996 18.4961 15.4442 17.8149C17.0887 17.1337 18.4943 15.9802 19.4832 14.5001C20.4722 13.0201 21 11.28 21 9.5C21 7.11305 20.0518 4.82387 18.364 3.13604C16.6761 1.44821 14.3869 0.5 12 0.5ZM17.8125 10.25H12C11.8011 10.25 11.6103 10.171 11.4697 10.0303C11.329 9.88968 11.25 9.69891 11.25 9.5V3.6875C11.25 3.48859 11.329 3.29782 11.4697 3.15717C11.6103 3.01652 11.8011 2.9375 12 2.9375C12.1989 2.9375 12.3897 3.01652 12.5303 3.15717C12.671 3.29782 12.75 3.48859 12.75 3.6875V8.75H17.8125C18.0114 8.75 18.2022 8.82902 18.3428 8.96967C18.4835 9.11032 18.5625 9.30109 18.5625 9.5C18.5625 9.69891 18.4835 9.88968 18.3428 10.0303C18.2022 10.171 18.0114 10.25 17.8125 10.25Z" fill="white"/>
</g>
<defs>
<filter id="filter0_ddddd_487_2870" x="0" y="0.5" width="24" height="29" filterUnits="userSpaceOnUse" color-interpolation-filters="sRGB">
<feFlood flood-opacity="0" result="BackgroundImageFix"/>
<feColorMatrix in="SourceAlpha" type="matrix" values="0 0 0 0 0 0 0 0 0 0 0 0 0 0 0 0 0 0 127 0" result="hardAlpha"/>
<feOffset/>
<feColorMatrix type="matrix" values="0 0 0 0 0 0 0 0 0 0 0 0 0 0 0 0 0 0 0.1 0"/>
<feBlend mode="normal" in2="BackgroundImageFix" result="effect1_dropShadow_487_2870"/>
<feColorMatrix in="SourceAlpha" type="matrix" values="0 0 0 0 0 0 0 0 0 0 0 0 0 0 0 0 0 0 127 0" result="hardAlpha"/>
<feOffset dy="1"/>
<feGaussianBlur stdDeviation="0.5"/>
<feColorMatrix type="matrix" values="0 0 0 0 0 0 0 0 0 0 0 0 0 0 0 0 0 0 0.1 0"/>
<feBlend mode="normal" in2="effect1_dropShadow_487_2870" result="effect2_dropShadow_487_2870"/>
<feColorMatrix in="SourceAlpha" type="matrix" values="0 0 0 0 0 0 0 0 0 0 0 0 0 0 0 0 0 0 127 0" result="hardAlpha"/>
<feOffset dy="2"/>
<feGaussianBlur stdDeviation="1"/>
<feColorMatrix type="matrix" values="0 0 0 0 0 0 0 0 0 0 0 0 0 0 0 0 0 0 0.09 0"/>
<feBlend mode="normal" in2="effect2_dropShadow_487_2870" result="effect3_dropShadow_487_2870"/>
<feColorMatrix in="SourceAlpha" type="matrix" values="0 0 0 0 0 0 0 0 0 0 0 0 0 0 0 0 0 0 127 0" result="hardAlpha"/>
<feOffset dy="5"/>
<feGaussianBlur stdDeviation="1.5"/>
<feColorMatrix type="matrix" values="0 0 0 0 0 0 0 0 0 0 0 0 0 0 0 0 0 0 0.05 0"/>
<feBlend mode="normal" in2="effect3_dropShadow_487_2870" result="effect4_dropShadow_487_2870"/>
<feColorMatrix in="SourceAlpha" type="matrix" values="0 0 0 0 0 0 0 0 0 0 0 0 0 0 0 0 0 0 127 0" result="hardAlpha"/>
<feOffset dy="8"/>
<feGaussianBlur stdDeviation="1.5"/>
<feColorMatrix type="matrix" values="0 0 0 0 0 0 0 0 0 0 0 0 0 0 0 0 0 0 0.01 0"/>
<feBlend mode="normal" in2="effect4_dropShadow_487_2870" result="effect5_dropShadow_487_2870"/>
<feBlend mode="normal" in="SourceGraphic" in2="effect5_dropShadow_487_2870" result="shape"/>
</filter>
</defs>
</svg>
