<svg width="47" height="60" viewBox="0 0 47 60" fill="none" xmlns="http://www.w3.org/2000/svg">
<g id="&#209;&#128;&#208;&#176;&#209;&#129;&#209;&#135;&#208;&#181;&#209;&#129;&#208;&#186;&#208;&#176; &#208;&#189;&#208;&#176; &#208;&#186;&#209;&#128;&#208;&#176;&#209;&#129;&#208;&#189;&#208;&#190;&#208;&#188;">
<g id="Group">
<path id="Vector" d="M24.6047 5.52362L5.64722 14.4734C2.70053 15.8646 1.47784 19.5551 2.92164 22.7003L8.38783 34.6079C9.83166 37.7532 13.4035 39.1802 16.3502 37.789L35.3078 28.8392C38.2545 27.448 39.4772 23.7576 38.0333 20.6123L32.5672 8.70471C31.1234 5.55952 27.5515 4.13245 24.6047 5.52362ZM34.951 22.1688C35.7414 23.8907 35.0721 25.911 33.4589 26.6726L15.9056 34.9595C14.2924 35.721 12.337 34.9398 11.5466 33.218L6.00399 21.1438C5.21358 19.422 5.88291 17.4016 7.4961 16.6401L25.0494 8.35319C26.6625 7.59161 28.6179 8.37281 29.4083 10.0947L34.951 22.1688Z" fill="#AD7DD2"/>
<path id="Vector_2" d="M25.8171 10.0093L8.24694 18.3001C7.49345 18.6557 7.18091 19.5993 7.55029 20.4036L13.101 32.4892C13.4704 33.2934 14.384 33.6585 15.1375 33.3029L32.7077 25.0121C33.4612 24.6566 33.7737 23.7129 33.4043 22.9087L27.8536 10.823C27.4842 10.0188 26.5706 9.65373 25.8171 10.0093ZM18.9195 15.5894C19.0515 15.191 19.4408 14.9456 19.8575 15.0211C20.139 15.0694 20.3954 15.2717 20.5231 15.5497C20.791 16.133 20.4248 16.8106 19.7965 16.8286C19.1737 16.8427 18.7207 16.1894 18.9195 15.5894ZM20.4121 19.0958C20.4688 18.6206 20.898 18.2662 21.3888 18.355C21.7764 18.4216 22.114 18.7766 22.1405 19.2305C22.1722 19.7288 21.8144 20.1486 21.3277 20.1626C20.7788 20.175 20.3398 19.6603 20.4121 19.0958ZM15.8671 16.904C15.979 16.7072 16.1663 16.5571 16.3958 16.5035C16.9319 16.379 17.4525 16.8014 17.4857 17.3704C17.5221 17.942 17.0488 18.3878 16.5034 18.2893C15.8978 18.1849 15.5515 17.448 15.8671 16.904ZM17.3272 20.3973C17.4375 20.064 17.7355 19.8242 18.0949 19.816C18.5725 19.8024 18.9877 20.2026 19.0169 20.7044C19.0643 21.448 18.2926 21.8786 17.7134 21.4949C17.3501 21.2586 17.1951 20.7958 17.3272 20.3973ZM15.7778 22.6881C15.4978 23.1802 14.8548 23.2497 14.4518 22.8585C14.0359 22.4592 14.0693 21.7731 14.4989 21.455C14.9306 21.1261 15.5652 21.3045 15.8072 21.8315C15.9307 22.1004 15.9268 22.431 15.7778 22.6881ZM17.3091 26.0221C16.9999 26.5652 16.2511 26.5932 15.8673 26.0585C15.6165 25.7047 15.6294 25.2201 15.9059 24.9054C16.2193 24.5445 16.7712 24.5251 17.1321 24.8755C17.4508 25.1815 17.5124 25.6711 17.3091 26.0221ZM12.6337 18.7097C12.6749 18.3651 12.9208 18.0595 13.2722 17.9774C13.7221 17.8655 14.2122 18.17 14.335 18.6675C14.4425 19.1027 14.2422 19.5276 13.8779 19.6995C13.256 19.993 12.5419 19.4266 12.6337 18.7097ZM15.348 31.1754C14.7918 31.4378 14.1359 31.0106 14.0982 30.3636C14.0617 29.7908 14.5373 29.3464 15.0805 29.4447C15.3689 29.4942 15.6217 29.7026 15.7461 29.9734C15.9554 30.4291 15.7817 30.9707 15.348 31.1754ZM12.6824 26.5198C12.9579 26.0351 13.6002 25.953 14.0085 26.3494C14.1822 26.5162 14.2868 26.7435 14.301 26.9862C14.3419 27.6289 13.7406 28.0926 13.1525 27.8577C12.6209 27.6453 12.4129 26.9844 12.6824 26.5198ZM12.5544 24.3025C12.3183 24.5744 11.947 24.6539 11.6213 24.5237C11.1672 24.3423 10.9253 23.8123 11.08 23.3452C11.3288 22.594 12.3429 22.5637 12.6836 23.3055C12.8328 23.6304 12.7949 24.0286 12.5544 24.3025ZM10.8993 21.0858C10.5807 21.3294 10.1135 21.3058 9.79695 20.9985C9.52752 20.7397 9.43744 20.3475 9.54875 20.0112C9.70368 19.5436 10.1998 19.3091 10.6529 19.4902C10.8694 19.5767 11.0517 19.7523 11.1524 19.9715C11.3386 20.377 11.2219 20.8387 10.8993 21.0858ZM18.4716 29.7014C17.9154 29.9639 17.2595 29.5367 17.2218 28.8897C17.1937 28.448 17.4737 28.071 17.8659 27.9793C18.1326 27.913 18.4406 27.9932 18.6633 28.2094C19.1289 28.6565 19.0256 29.44 18.4716 29.7014ZM21.5952 28.2275C21.1658 28.4301 20.6425 28.2219 20.4315 27.7625C20.2222 27.3068 20.3963 26.7655 20.8297 26.5609C21.2525 26.3614 21.7782 26.5572 21.9933 27.0255C22.1996 27.4747 22.0349 28.02 21.5952 28.2275ZM20.3328 24.6886C19.973 25.103 19.328 25.0568 18.9905 24.5837C18.7702 24.2749 18.759 23.8659 18.9296 23.5719C19.2064 23.0849 19.8492 23.0069 20.2557 23.4016C20.6219 23.7532 20.6462 24.3318 20.3328 24.6886ZM25.0875 26.4082C24.7344 27.0286 23.857 26.9459 23.5551 26.2886C23.4272 26.0101 23.4396 25.6815 23.5844 25.432C23.9353 24.8146 24.8139 24.892 25.1168 25.5516C25.2416 25.8232 25.235 26.1535 25.0875 26.4082ZM23.1882 23.4196C22.7553 23.6213 22.2359 23.4145 22.0241 22.9547C21.8192 22.51 21.9763 21.9659 22.4229 21.7533C22.8662 21.5422 23.3805 21.7735 23.5859 22.2155C23.7943 22.664 23.6211 23.2179 23.1882 23.4196ZM28.2822 24.775C28.1736 25.103 27.88 25.3479 27.5145 25.3563C26.8943 25.3742 26.4378 24.7179 26.6367 24.1174C26.747 23.7845 27.0447 23.5442 27.4044 23.5361C28.0184 23.5184 28.4834 24.1679 28.2822 24.775ZM26.4557 21.8572C26.0655 22.1554 25.5113 22.0322 25.2377 21.6358C24.8684 21.1199 25.0975 20.3657 25.7054 20.2235C26.0903 20.1279 26.523 20.3382 26.7092 20.7437C26.8918 21.1413 26.7831 21.6148 26.4557 21.8572ZM24.6199 18.6669C24.2271 18.7645 23.7988 18.5445 23.6162 18.1467C23.4912 17.8747 23.4981 17.5439 23.6456 17.2901C23.9954 16.6745 24.8736 16.7471 25.178 17.4098C25.4202 17.9373 25.1451 18.5451 24.6199 18.6669ZM23.2486 15.2778C22.83 15.4753 22.3017 15.2848 22.0849 14.8128C21.8816 14.37 22.0365 13.822 22.4829 13.6114C22.9122 13.4088 23.4348 13.6145 23.6467 14.0758C23.859 14.5381 23.6753 15.0764 23.2486 15.2778ZM31.423 22.7737C31.4798 22.9903 31.4558 23.2512 31.3346 23.4604C31.0577 23.9469 30.4153 24.0256 30.0086 23.6307C29.6443 23.2809 29.6168 22.7017 29.9315 22.3437C30.3882 21.818 31.2485 22.0667 31.423 22.7737ZM29.8034 20.1264C29.6623 20.3743 29.4077 20.5415 29.1069 20.5484C28.4891 20.5662 28.0292 19.9131 28.2291 19.3095C28.4073 18.7716 29.0256 18.5625 29.4883 18.8695C29.9164 19.1477 30.038 19.7215 29.8034 20.1264ZM28.2722 16.7924C27.9626 17.3363 27.2095 17.3615 26.8292 16.8283C26.6135 16.526 26.5957 16.1148 26.7692 15.8162C27.1235 15.1927 28.0011 15.2815 28.3016 15.9358C28.4345 16.2253 28.4107 16.5533 28.2722 16.7924ZM26.3722 13.8038C26.0072 13.9761 25.5561 13.8562 25.298 13.4944C24.9674 13.0311 25.1129 12.3712 25.6066 12.1369C26.0243 11.9389 26.5538 12.1305 26.7703 12.6019C26.979 13.0563 26.8068 13.5988 26.3722 13.8038Z" fill="#AD7DD2"/>
<path id="Vector_3" d="M30.3092 32.6041L22.4082 36.3027L23.5799 38.8321L31.4809 35.1335L30.3092 32.6041Z" fill="#AD7DD2"/>
<path id="Vector_4" d="M27.34 46.8233C28.3813 49.0991 30.963 50.1291 33.095 49.1193C35.227 48.1095 36.1144 45.4364 35.0731 43.1606L32.0515 36.5568L24.3184 40.2195L27.34 46.8233ZM30.0555 44.5327C29.8469 44.0769 30.024 43.5433 30.4511 43.341C30.8782 43.1387 31.3936 43.3443 31.6021 43.8002L31.9798 44.6256C32.1884 45.0815 32.0113 45.6151 31.5842 45.8174C31.1571 46.0197 30.6418 45.814 30.4332 45.3582L30.0555 44.5327Z" fill="#AD7DD2"/>
</g>
</g>
</svg>
