<svg width="60" height="62" viewBox="0 0 60 62" fill="none" xmlns="http://www.w3.org/2000/svg">
<g id="Frame 1725">
<path id="&#209;&#128;&#208;&#176;&#209;&#129;&#209;&#135;&#208;&#181;&#209;&#129;&#208;&#186;&#208;&#176; &#208;&#189;&#208;&#176; &#209;&#132;" d="M36.8997 9.04377L36.4087 9.6594C36.2929 9.80586 36.2292 9.9879 36.2276 10.1762C36.226 10.3645 36.2867 10.5481 36.4 10.6974L40.3909 15.9176L39.855 16.5801L35.1028 12.6442C35.0212 12.5571 34.9223 12.4888 34.8128 12.4439C34.7032 12.399 34.5856 12.3785 34.4678 12.3839C34.35 12.3893 34.2348 12.4203 34.13 12.475C34.0252 12.5297 33.9332 12.6067 33.8603 12.7008C33.7874 12.795 33.7353 12.904 33.7074 13.0206C33.6796 13.1372 33.6767 13.2586 33.6989 13.3766C33.7212 13.4946 33.768 13.6065 33.8363 13.7047C33.9046 13.8028 33.9928 13.885 34.0948 13.9456L38.8471 17.8815L37.6702 19.3099L32.9098 15.3749C32.7402 15.2354 32.5237 15.1696 32.3073 15.1919C32.0909 15.2143 31.8923 15.3229 31.7549 15.4942C31.6185 15.6662 31.5547 15.8865 31.5775 16.1069C31.6003 16.3273 31.7077 16.5299 31.8764 16.6705L36.6287 20.6064L35.4798 22.0657L30.7275 18.1298C30.6433 18.0595 30.5463 18.0068 30.4421 17.9747C30.3379 17.9427 30.2286 17.9319 30.1205 17.9431C30.0124 17.9542 29.9076 17.9871 29.8122 18.0398C29.7167 18.0924 29.6326 18.1639 29.5645 18.2499C29.4292 18.4209 29.3656 18.6395 29.3873 18.8584C29.398 18.9683 29.4299 19.075 29.4812 19.1724C29.5324 19.2699 29.602 19.3561 29.686 19.4262L34.4464 23.3612L33.2894 24.8214L28.5371 20.8855C28.3676 20.746 28.151 20.6802 27.9346 20.7026C27.7182 20.7249 27.5197 20.8336 27.3823 21.0048C27.3144 21.0906 27.2639 21.1892 27.2336 21.2951C27.2034 21.401 27.194 21.5119 27.2059 21.6217C27.2166 21.7315 27.2485 21.8382 27.2998 21.9357C27.351 22.0331 27.4206 22.1194 27.5046 22.1895L32.2569 26.1253L31.1071 27.5763L26.3549 23.6404C26.1874 23.4967 25.9711 23.4264 25.7533 23.4449C25.5356 23.4634 25.3343 23.5693 25.1938 23.7393C25.0533 23.9092 24.985 24.1293 25.004 24.351C25.0231 24.5728 25.1278 24.7782 25.2952 24.9219L30.0475 28.8577L28.9167 30.332L24.1644 26.3962C23.998 26.2512 23.7821 26.1793 23.5642 26.1963C23.3462 26.2133 23.1442 26.3177 23.0025 26.4867C22.9323 26.5703 22.8791 26.6673 22.8458 26.772C22.8125 26.8768 22.7998 26.9872 22.8085 27.0971C22.826 27.3191 22.9293 27.5252 23.0957 27.6701L27.848 31.606L27.3203 32.2676L21.4899 29.3537C21.3223 29.2692 21.1317 29.2451 20.9494 29.2854C20.767 29.3257 20.6038 29.4279 20.4864 29.5754L19.9954 30.191C19.8638 30.3618 19.8028 30.5782 19.8251 30.7946C19.8474 31.0109 19.9514 31.2103 20.1151 31.3506L24.7342 35.5195L14.6305 48.2156C14.3472 48.5699 14.1362 48.9782 14.0095 49.4168C13.8829 49.8554 13.8432 50.3157 13.8927 50.7707C13.9379 51.2282 14.0719 51.6723 14.2871 52.0771C14.5023 52.4819 14.7943 52.8394 15.1461 53.1286C15.8544 53.7109 16.7591 53.9853 17.6628 53.892C18.5665 53.7987 19.3959 53.3452 19.9702 52.6304L46.2346 19.6817C47.4145 18.2024 46.9526 15.8133 45.2056 14.3664L38.0218 8.92788C37.8548 8.79809 37.6458 8.73782 37.4373 8.75935C37.2288 8.78089 37.0365 8.8826 36.8997 9.04377Z" fill="#AD7DD2"/>
</g>
</svg>
