<svg width="49" height="45" viewBox="0 0 49 45" fill="none" xmlns="http://www.w3.org/2000/svg">
<g id="Frame 1726">
<path id="Vector" d="M7.112 30.6103C8.01627 31.6883 9.20291 32.4495 10.4515 32.7535C11.4486 32.9972 12.4274 32.9291 13.2602 32.572C13.5739 32.4374 13.8623 32.2649 14.1277 32.051C15.0913 31.27 15.6006 30.03 15.5238 28.6488C15.4557 27.389 14.9154 26.1043 14.011 25.026C13.103 23.9496 11.9163 23.1883 10.6715 22.8827C9.30148 22.5482 7.96255 22.8036 6.99526 23.5853C6.03167 24.3662 5.51902 25.6077 5.59548 26.9891C5.66724 28.2472 6.20381 29.5336 7.112 30.6103ZM29.0238 17.5092C27.7134 18.0711 26.1434 17.8927 24.7154 17.0187C23.4198 16.2269 22.3229 14.9319 21.627 13.3724C20.9302 11.811 20.7048 10.1427 20.9911 8.67254C21.3059 7.05168 22.2378 5.80035 23.5482 5.23841C24.862 4.67503 26.4319 4.85348 27.8598 5.72702C29.152 6.52026 30.2489 7.81526 30.9455 9.37628C31.6416 10.9362 31.867 12.6045 31.5841 14.0732C31.2694 15.6945 30.3375 16.9458 29.0238 17.5092ZM17.691 22.369C16.3773 22.9324 14.8074 22.754 13.3793 21.8801C12.0871 21.0868 10.9902 19.7918 10.2942 18.2323C9.59751 16.6709 9.37212 15.0026 9.65502 13.5339C9.96983 11.913 10.9018 10.6617 12.2155 10.0983C13.5259 9.53635 15.0958 9.71479 16.5237 10.5883C17.8193 11.3801 18.9162 12.6751 19.6128 14.2362C20.3089 15.7961 20.5342 17.4644 20.248 18.9345C19.9333 20.5558 19.0014 21.8071 17.691 22.369ZM33.5122 16.664C33.3221 15.2793 33.5571 13.908 34.1731 12.8044C34.8525 11.5911 35.9526 10.8005 37.1947 10.6347C38.4371 10.4696 39.7117 10.9447 40.6946 11.9374C41.5887 12.8428 42.1878 14.1024 42.3783 15.4869C42.572 16.8696 42.3368 18.2405 41.7171 19.3458C41.2228 20.229 40.5075 20.8874 39.6747 21.2445C39.3646 21.3775 39.0359 21.4695 38.6989 21.514C37.4565 21.6791 36.1819 21.204 35.199 20.2113C34.3015 19.3073 33.7055 18.0465 33.5122 16.664ZM18.2632 26.7774C19.2949 23.9904 21.2368 21.8674 23.739 20.7944C26.2413 19.7214 29.1534 19.7627 31.9338 20.9145C34.5902 22.0111 37.0205 24.0708 38.7816 26.7145C39.9037 28.4013 40.1208 30.3946 39.3714 32.1857C38.592 34.0495 36.9993 35.1968 35.0019 35.3353C33.5232 35.4361 32.0734 35.7875 30.6934 36.3793C29.3135 36.9711 28.0662 37.7763 26.987 38.7724C26.5366 39.1869 26.0411 39.5091 25.5149 39.7347C24.3335 40.2413 22.9957 40.2665 21.6651 39.7788C19.8114 39.104 18.4652 37.5949 17.9635 35.642C17.1787 32.5801 17.2848 29.4323 18.2632 26.7774Z" fill="#AD7DD2"/>
</g>
</svg>
