<svg width="36" height="33" viewBox="0 0 36 33" fill="none" xmlns="http://www.w3.org/2000/svg">
<g id="Frame 1727">
<path id="Vector" d="M30.7748 22.4476C30.1105 23.2381 29.2386 23.7963 28.3213 24.0193C27.5887 24.198 26.8697 24.148 26.2578 23.8861C26.0273 23.7874 25.8154 23.6609 25.6204 23.5041C24.9125 22.9314 24.5383 22.022 24.5947 21.0091C24.6447 20.0853 25.0417 19.1432 25.7062 18.3524C26.3733 17.563 27.2451 17.0048 28.1597 16.7807C29.1662 16.5354 30.1499 16.7226 30.8606 17.2959C31.5685 17.8686 31.9452 18.779 31.889 19.792C31.8363 20.7146 31.4421 21.6579 30.7748 22.4476ZM14.6764 12.8401C15.6391 13.2521 16.7925 13.1213 17.8417 12.4804C18.7936 11.8998 19.5995 10.9501 20.1108 9.80642C20.6226 8.66141 20.7882 7.43799 20.5779 6.35986C20.3466 5.17123 19.662 4.25359 18.6992 3.8415C17.734 3.42836 16.5806 3.55922 15.5316 4.19981C14.5821 4.78153 13.7763 5.73119 13.2645 6.87594C12.7531 8.01988 12.5875 9.2433 12.7953 10.3204C13.0265 11.5093 13.7112 12.4269 14.6764 12.8401ZM23.0025 16.404C23.9677 16.8171 25.1211 16.6862 26.1703 16.0454C27.1197 15.4637 27.9256 14.514 28.4368 13.3703C28.9487 12.2253 29.1143 11.0019 28.9065 9.92483C28.6752 8.73619 27.9905 7.81856 27.0253 7.40541C26.0626 6.99332 24.9092 7.12418 23.8601 7.76478C22.9082 8.34543 22.1023 9.2951 21.5906 10.4398C21.0792 11.5838 20.9136 12.8072 21.1239 13.8853C21.3551 15.0742 22.0397 15.9919 23.0025 16.404ZM11.3787 12.2203C11.5184 11.2049 11.3458 10.1992 10.8932 9.38989C10.3941 8.50012 9.58584 7.92035 8.67326 7.79878C7.76045 7.67774 6.82404 8.02608 6.10187 8.75407C5.44497 9.41807 5.00487 10.3417 4.86488 11.357C4.72255 12.371 4.89534 13.3764 5.35067 14.1869C5.71379 14.8346 6.23936 15.3174 6.85123 15.5793C7.079 15.6768 7.3205 15.7443 7.5681 15.7769C8.48092 15.898 9.41732 15.5496 10.1395 14.8216C10.7989 14.1587 11.2368 13.2341 11.3787 12.2203ZM22.5821 19.6367C21.8241 17.593 20.3974 16.0361 18.559 15.2492C16.7207 14.4623 14.5811 14.4927 12.5384 15.3373C10.5868 16.1415 8.80122 17.6519 7.50736 19.5906C6.68297 20.8277 6.52343 22.2894 7.07404 23.6029C7.64664 24.9696 8.81681 25.811 10.2843 25.9126C11.3707 25.9865 12.4359 26.2442 13.4497 26.6781C14.4635 27.1121 15.3799 27.7026 16.1728 28.4331C16.5036 28.7371 16.8677 28.9733 17.2543 29.1388C18.1223 29.5103 19.1052 29.5288 20.0827 29.1711C21.4447 28.6763 22.4337 27.5696 22.8023 26.1374C23.3789 23.8921 23.3009 21.5837 22.5821 19.6367Z" fill="#AD7DD2"/>
</g>
</svg>
