<svg width="65" height="69" viewBox="0 0 65 69" fill="none" xmlns="http://www.w3.org/2000/svg">
<g id="Frame 1541">
<path id="&#209;&#128;&#208;&#176;&#209;&#129;&#209;&#135;&#208;&#181;&#209;&#129;&#208;&#186;&#208;&#176; &#208;&#189;&#208;&#176; &#209;&#132;" d="M23.3089 9.5965L23.8934 10.2645C24.0312 10.4235 24.1123 10.6252 24.1238 10.8371C24.1352 11.0491 24.0763 11.2589 23.9564 11.4329L19.7306 17.5158L20.368 18.2342L25.517 13.5584C25.6044 13.4562 25.7122 13.3742 25.8333 13.318C25.9543 13.2618 26.0858 13.2327 26.2187 13.2327C26.3516 13.2327 26.4829 13.2618 26.6037 13.318C26.7246 13.3742 26.8321 13.4562 26.919 13.5584C27.0059 13.6606 27.0702 13.7808 27.1075 13.9106C27.1449 14.0405 27.1544 14.177 27.1354 14.3111C27.1164 14.4451 27.0694 14.5735 26.9975 14.6875C26.9256 14.8015 26.8306 14.8986 26.7188 14.9721L21.5697 19.6479L22.9682 21.1959L28.1266 16.5206C28.3103 16.3548 28.5508 16.2696 28.7956 16.2837C29.0404 16.2977 29.2696 16.4099 29.4331 16.5957C29.5955 16.7824 29.6786 17.0272 29.6643 17.2765C29.65 17.5259 29.5394 17.7595 29.3567 17.9265L24.2076 22.6023L25.5762 24.1865L30.7252 19.5107C30.8165 19.4272 30.923 19.3628 31.0386 19.3214C31.1543 19.28 31.2768 19.2622 31.3991 19.2693C31.5215 19.2763 31.6412 19.3079 31.7513 19.3623C31.8615 19.4167 31.9599 19.4928 32.041 19.5862C32.2021 19.7718 32.285 20.0147 32.2718 20.2623C32.2653 20.3866 32.2349 20.5084 32.1822 20.6207C32.1295 20.7331 32.0555 20.8338 31.9646 20.917L26.8062 25.5923L28.1841 27.177L33.3332 22.5012C33.5169 22.3354 33.7574 22.2502 34.0022 22.2643C34.247 22.2783 34.4761 22.3905 34.6396 22.5763C34.7205 22.6694 34.7824 22.7779 34.8219 22.8955C34.8614 23.0131 34.8777 23.1376 34.8699 23.2618C34.8635 23.3861 34.833 23.5078 34.7803 23.6202C34.7276 23.7325 34.6536 23.8332 34.5627 23.9165L29.4136 28.5923L30.7827 30.1671L35.9318 25.4913C36.113 25.3208 36.353 25.2305 36.5991 25.2402C36.8453 25.2499 37.0773 25.3588 37.2443 25.5429C37.4112 25.7271 37.4994 25.9714 37.4894 26.2221C37.4793 26.4728 37.3719 26.7094 37.1908 26.8798L32.0417 31.5556L33.3906 33.1576L38.5397 28.4818C38.7197 28.3101 38.9592 28.218 39.2054 28.226C39.4516 28.2339 39.6845 28.3411 39.8527 28.5241C39.9361 28.6147 40.001 28.7211 40.0439 28.8373C40.0867 28.9536 40.1067 29.0773 40.1026 29.2015C40.0943 29.4523 39.9885 29.6897 39.8085 29.8615L34.6594 34.5373L35.2875 35.2551L41.7031 31.6747C41.8875 31.571 42.1009 31.5341 42.3083 31.5701C42.5157 31.6061 42.7048 31.7129 42.8445 31.8728L43.429 32.5409C43.5859 32.7264 43.6658 32.967 43.6517 33.2118C43.6376 33.4565 43.5308 33.6864 43.3537 33.8528L38.3665 38.7841L50.3953 52.5615C50.7324 52.9458 50.991 53.3948 51.1561 53.8822C51.3212 54.3696 51.3895 54.8857 51.3571 55.4007C51.3298 55.9181 51.2016 56.425 50.9801 56.8919C50.7586 57.3588 50.4481 57.7763 50.0668 58.1201C49.2991 58.8121 48.2946 59.1676 47.2722 59.1089C46.2499 59.0502 45.2926 58.5821 44.6092 57.8067L13.3436 22.0542C11.9391 20.449 12.3366 17.7352 14.2295 16.0163L22.0394 9.52361C22.2207 9.3689 22.453 9.2903 22.6889 9.30384C22.9247 9.31738 23.1465 9.42205 23.3089 9.5965Z" fill="#8050A3"/>
</g>
</svg>
