<svg width="55" height="64" viewBox="0 0 55 64" fill="none" xmlns="http://www.w3.org/2000/svg">
<g id="Frame 1768">
<path id="&#209;&#128;&#208;&#176;&#209;&#129;&#209;&#135;&#208;&#181;&#209;&#129;&#208;&#186;&#208;&#176; &#208;&#189;&#208;&#176; &#209;&#132;" d="M38.6397 1.06539L37.9014 1.91072C37.7274 2.11189 37.6249 2.36712 37.6104 2.63532C37.596 2.90352 37.6704 3.16907 37.8218 3.38919L43.1593 11.0867L42.3542 11.9958L35.8506 6.07889C35.7403 5.94951 35.6041 5.84576 35.4512 5.77466C35.2983 5.70355 35.1323 5.66676 34.9644 5.66675C34.7965 5.66676 34.6307 5.70355 34.4781 5.77466C34.3255 5.84577 34.1897 5.94952 34.0799 6.0789C33.9701 6.20828 33.8889 6.36028 33.8418 6.52459C33.7946 6.68891 33.7826 6.86172 33.8066 7.03133C33.8306 7.20095 33.8899 7.3634 33.9807 7.50771C34.0715 7.65202 34.1916 7.77481 34.3328 7.86778L40.8364 13.7847L39.0699 15.7436L32.5546 9.82741C32.3226 9.61758 32.0188 9.50978 31.7096 9.52757C31.4005 9.54535 31.111 9.68727 30.9045 9.92234C30.6993 10.1587 30.5943 10.4684 30.6124 10.7839C30.6305 11.0995 30.7702 11.3951 31.001 11.6064L37.5046 17.5233L35.776 19.528L29.2724 13.6111C29.1572 13.5054 29.0226 13.424 28.8765 13.3716C28.7304 13.3191 28.5757 13.2967 28.4212 13.3056C28.2667 13.3145 28.1155 13.3545 27.9764 13.4233C27.8372 13.4922 27.7129 13.5885 27.6105 13.7067C27.407 13.9416 27.3024 14.2489 27.319 14.5623C27.3271 14.7195 27.3656 14.8736 27.4322 15.0158C27.4987 15.1579 27.5921 15.2854 27.707 15.3907L34.2223 21.3069L32.482 23.3123L25.9784 17.3954C25.7464 17.1856 25.4426 17.0778 25.1334 17.0956C24.8242 17.1134 24.5348 17.2553 24.3282 17.4904C24.2262 17.6082 24.1479 17.7455 24.098 17.8944C24.0481 18.0432 24.0275 18.2007 24.0374 18.3579C24.0456 18.5151 24.084 18.6692 24.1506 18.8114C24.2172 18.9536 24.3106 19.081 24.4254 19.1863L30.929 25.1032L29.1998 27.096L22.6962 21.1791C22.4674 20.9634 22.1642 20.8492 21.8533 20.8614C21.5424 20.8737 21.2493 21.0115 21.0384 21.2445C20.8276 21.4775 20.7162 21.7866 20.7289 22.1039C20.7416 22.4212 20.8772 22.7205 21.106 22.9362L27.6096 28.8531L25.9058 30.8803L19.4022 24.9635C19.1749 24.7461 18.8724 24.6297 18.5614 24.6397C18.2504 24.6497 17.9563 24.7854 17.7438 25.0169C17.6386 25.1315 17.5565 25.2663 17.5024 25.4133C17.4483 25.5604 17.4231 25.717 17.4283 25.8742C17.4387 26.1915 17.5723 26.4919 17.7997 26.7093L24.3033 32.6262L23.5099 33.5346L15.4067 29.0038C15.1738 28.8726 14.9042 28.8259 14.6423 28.8715C14.3803 28.917 14.1415 29.0521 13.965 29.2545L13.2268 30.0999C13.0286 30.3347 12.9277 30.6391 12.9455 30.9489C12.9632 31.2586 13.0982 31.5494 13.3219 31.76L19.6209 38.0002L4.42796 55.4345C4.00217 55.9209 3.67551 56.489 3.46696 57.1058C3.2584 57.7226 3.17211 58.3758 3.21309 59.0274C3.24761 59.6821 3.40948 60.3236 3.68929 60.9144C3.96909 61.5052 4.36122 62.0335 4.84282 62.4686C5.81242 63.3443 7.08121 63.7941 8.37253 63.7198C9.66384 63.6455 10.8729 63.0532 11.7361 62.0721L51.2264 16.8298C53.0004 14.7985 52.4983 11.3643 50.1075 9.18917L40.2431 0.973157C40.0141 0.777378 39.7207 0.677922 39.4228 0.69506C39.1249 0.712198 38.8448 0.844639 38.6397 1.06539Z" fill="url(#paint0_linear_480_1983)"/>
</g>
<defs>
<linearGradient id="paint0_linear_480_1983" x1="53.251" y1="30.5189" x2="1.74837" y2="33.4705" gradientUnits="userSpaceOnUse">
<stop stop-color="#2CA88A"/>
<stop offset="1" stop-color="#2AA385"/>
</linearGradient>
</defs>
</svg>
