<svg width="67" height="62" viewBox="0 0 67 62" fill="none" xmlns="http://www.w3.org/2000/svg">
<g id="Frame 1537">
<path id="Vector" d="M57.2759 42.1742C56.0394 43.6594 54.4169 44.7082 52.7096 45.1271C51.3462 45.4629 50.008 45.369 48.8692 44.8769C48.4402 44.6916 48.0459 44.4538 47.683 44.1592C46.3654 43.0831 45.669 41.3747 45.7741 39.4716C45.8671 37.736 46.6059 35.9659 47.8426 34.4802C49.0842 32.9972 50.7067 31.9484 52.4088 31.5273C54.2821 31.0665 56.1129 31.4183 57.4355 32.4953C58.7531 33.5713 59.454 35.2817 59.3495 37.185C59.2514 38.9184 58.5177 40.6907 57.2759 42.1742ZM27.3149 24.1237C29.1067 24.898 31.2533 24.6521 33.2059 23.4481C34.9775 22.3571 36.4773 20.5729 37.4289 18.4242C38.3816 16.2729 38.6898 13.9744 38.2983 11.9488C37.8679 9.71564 36.5936 7.9916 34.8019 7.21737C33.0055 6.44115 30.8589 6.68701 28.9065 7.89055C27.1395 8.98347 25.6397 10.7677 24.6872 12.9184C23.7355 15.0677 23.4273 17.3662 23.8141 19.3898C24.2443 21.6235 25.5186 23.3475 27.3149 24.1237ZM42.8107 30.8196C44.6071 31.5958 46.7537 31.3499 48.7063 30.1459C50.4733 29.0529 51.9731 27.2687 52.9247 25.12C53.8773 22.9688 54.1855 20.6702 53.7987 18.6466C53.3682 16.4135 52.094 14.6894 50.2976 13.9132C48.5059 13.139 46.3593 13.3848 44.4069 14.5884C42.6353 15.6793 41.1354 17.4635 40.183 19.6143C39.2312 21.7635 38.923 24.062 39.3145 26.0876C39.7447 28.3213 41.0189 30.0453 42.8107 30.8196ZM21.1776 22.9593C21.4376 21.0515 21.1162 19.1622 20.2739 17.6416C19.3451 15.9699 17.8409 14.8807 16.1425 14.6522C14.4436 14.4248 12.7008 15.0793 11.3568 16.447C10.1342 17.6946 9.31516 19.4299 9.05463 21.3375C8.78972 23.2425 9.11132 25.1314 9.95873 26.6541C10.6345 27.8711 11.6127 28.7782 12.7514 29.2702C13.1753 29.4534 13.6248 29.5802 14.0856 29.6415C15.7845 29.8689 17.5272 29.2145 18.8713 27.8467C20.0984 26.6012 20.9134 24.8641 21.1776 22.9593ZM42.0284 36.8933C40.6177 33.0534 37.9624 30.1285 34.541 28.6501C31.1196 27.1716 27.1376 27.2286 23.3359 28.8155C19.7037 30.3264 16.3806 33.1642 13.9726 36.8066C12.4383 39.1307 12.1414 41.8771 13.1661 44.3448C14.2318 46.9126 16.4096 48.4933 19.1408 48.6842C21.1627 48.8231 23.1451 49.3072 25.0319 50.1226C26.9188 50.9379 28.6242 52.0473 30.0999 53.4197C30.7157 53.9909 31.3933 54.4347 32.1128 54.7456C33.7281 55.4436 35.5574 55.4783 37.3767 54.8063C39.9114 53.8767 41.7521 51.7974 42.4381 49.1067C43.5113 44.8881 43.3661 40.5511 42.0284 36.8933Z" fill="#156853"/>
</g>
</svg>
