<svg width="61" height="61" viewBox="0 0 61 61" fill="none" xmlns="http://www.w3.org/2000/svg">
<g id="play">
<path id="Vector" d="M59.3493 15.028C59.3493 15.028 57.3882 5.64347 48.9107 2.34605C44.9248 0.824101 37.6494 0.0632966 30.5003 0C23.3512 0.0632501 16.0757 0.824022 12.09 2.34605C3.6125 5.64347 1.65137 15.028 1.65137 15.028C0.386169 20.3543 -0.0569168 25.7444 0.00657486 30.5C-0.0565316 35.2557 0.322994 40.709 1.65137 45.972C1.65137 45.972 3.6125 55.3565 12.09 58.6539C16.0759 60.1759 23.3513 60.9367 30.5003 61C37.6495 60.9367 44.9249 60.2392 48.9107 58.6539C57.3882 55.3565 59.3493 45.972 59.3493 45.972C60.6145 40.6457 61.0576 35.2556 60.9941 30.5C61.0576 25.7443 60.6146 20.3542 59.3493 15.028ZM42.0145 32.3389L27.147 41.9136C26.704 42.2308 26.1982 42.3577 25.6285 42.3577C25.1855 42.3577 24.7428 42.2308 24.2997 42.0406C23.414 41.5333 22.8447 40.6456 22.8447 39.6309V20.4811C22.8447 19.4665 23.414 18.5156 24.2997 18.0715C25.1854 17.5641 26.2609 17.6274 27.0835 18.1984L41.951 27.7732C42.7736 28.2805 43.2162 29.1682 43.2162 30.1192C43.2162 31.0706 42.8367 31.8314 42.014 32.3388L42.0145 32.3389Z" fill="url(#paint0_radial_403_1956)"/>
</g>
<defs>
<radialGradient id="paint0_radial_403_1956" cx="0" cy="0" r="1" gradientUnits="userSpaceOnUse" gradientTransform="translate(26.1474 12.1735) rotate(57.0686) scale(52.6559 72.7081)">
<stop stop-color="#C086EC"/>
<stop offset="1" stop-color="#8339B7"/>
</radialGradient>
</defs>
</svg>
