<svg width="64" height="53" viewBox="0 0 64 53" fill="none" xmlns="http://www.w3.org/2000/svg">
<g id="&#209;&#128;&#208;&#176;&#209;&#129;&#209;&#135;&#208;&#181;&#209;&#129;&#208;&#186;&#208;&#176; &#208;&#189;&#208;&#176; &#208;&#186;&#209;&#128;&#208;&#176;&#209;&#129;&#208;&#189;&#208;&#190;&#208;&#188;">
<g id="Group">
<path id="Vector" d="M10.6575 16.9314L26.8984 4.69001C29.4228 2.78726 33.1977 3.45114 35.3132 6.16991L43.3226 16.4631C45.4382 19.1819 45.1054 22.9418 42.581 24.8445L26.3401 37.0859C23.8156 38.9887 20.0409 38.3248 17.9253 35.606L9.91594 25.3128C7.80041 22.594 8.133 18.8342 10.6575 16.9314ZM20.6547 33.6629C21.8129 35.1513 23.8794 35.5147 25.2614 34.4731L40.2992 23.1385C41.6812 22.0968 41.8633 20.0385 40.7052 18.5501L32.5838 8.11297C31.4256 6.62456 29.3592 6.26113 27.9771 7.3028L12.9393 18.6374C11.5573 19.6791 11.3752 21.7373 12.5333 23.2257L20.6547 33.6629Z" fill="#19725C"/>
<path id="Vector_2" d="M14.0445 20.0755L29.1 8.7238C29.7457 8.23698 30.7113 8.40688 31.2524 9.10249L39.3836 19.5558C39.9247 20.2514 39.8397 21.2135 39.194 21.7004L24.1385 33.0521C23.4929 33.5389 22.5273 33.369 21.9862 32.6734L13.8549 22.2201C13.3138 21.5245 13.3989 20.5624 14.0445 20.0755ZM21.9929 16.7051C21.5852 16.6334 21.1976 16.8561 21.079 17.2524C20.9965 17.5188 21.0601 17.8355 21.2472 18.076C21.6396 18.5805 22.3959 18.5796 22.6902 18.0437C22.9787 17.5106 22.6069 16.813 21.9929 16.7051ZM24.4043 19.6358C23.9626 19.463 23.4618 19.6693 23.3221 20.1361C23.2086 20.503 23.3701 20.9614 23.7561 21.1962C24.1788 21.4565 24.7053 21.3425 24.9333 20.9273C25.1875 20.4575 24.9311 19.8367 24.4043 19.6358ZM24.4982 14.6743C24.2762 14.6793 24.0615 14.7715 23.9128 14.9453C23.5661 15.3516 23.7055 16 24.1895 16.2945C24.6743 16.5929 25.2748 16.391 25.4302 15.8725C25.6072 15.299 25.1149 14.6548 24.4982 14.6743ZM26.9126 17.5707C26.5715 17.5107 26.2292 17.6568 26.0628 17.9644C25.8391 18.3719 26.0058 18.9185 26.4326 19.1781C27.0633 19.5664 27.7828 19.099 27.7033 18.4179C27.6573 17.9928 27.3204 17.6424 26.9126 17.5707ZM29.6072 17.2981C30.1626 17.2852 30.5085 16.7606 30.3443 16.2287C30.1787 15.6818 29.5626 15.3904 29.0934 15.6141C28.6137 15.8345 28.4888 16.4677 28.8434 16.9235C29.0243 17.1561 29.3158 17.3071 29.6072 17.2981ZM31.8503 20.1818C32.4633 20.1675 32.8198 19.5318 32.5213 18.9495C32.3225 18.567 31.892 18.3519 31.4936 18.4445C31.0384 18.5475 30.7767 19.0167 30.9238 19.4929C31.0507 19.912 31.4525 20.194 31.8503 20.1818ZM27.5142 12.7159C27.194 12.5907 26.8171 12.6611 26.5894 12.9272C26.2918 13.2647 26.3415 13.8316 26.723 14.1703C27.0568 14.4667 27.518 14.4916 27.8302 14.2562C28.3631 13.8544 28.1832 12.9712 27.5142 12.7159ZM37.2361 20.8892C37.7127 20.5298 37.6291 19.762 37.0787 19.4272C36.5928 19.1281 35.9925 19.3326 35.8379 19.8492C35.7534 20.1222 35.8239 20.4385 36.0061 20.6728C36.3128 21.067 36.8644 21.1694 37.2361 20.8892ZM34.3375 16.4055C33.7906 16.4178 33.434 16.936 33.6003 17.4748C33.6695 17.7033 33.8224 17.9 34.0288 18.0256C34.5739 18.3612 35.2469 18.0568 35.3017 17.4376C35.3512 16.8778 34.8642 16.3889 34.3375 16.4055ZM32.451 15.259C32.794 15.1815 33.0283 14.8969 33.0586 14.5539C33.1009 14.0757 32.7436 13.6186 32.2657 13.5345C31.497 13.3993 31.0208 14.2638 31.5199 14.9054C31.7385 15.1864 32.1044 15.3396 32.451 15.259ZM30.3656 12.3228C30.7204 12.1605 30.9068 11.7447 30.7778 11.3269C30.6704 10.9726 30.3666 10.7114 30.0225 10.6508C29.544 10.5667 29.1186 10.887 29.0764 11.3642C29.0562 11.5921 29.1293 11.8321 29.2768 12.0217C29.5496 12.3725 30.006 12.487 30.3656 12.3228ZM34.5595 22.9073C35.0361 22.5479 34.9525 21.7801 34.4021 21.4453C34.0275 21.2146 33.573 21.2813 33.3187 21.5782C33.1424 21.7783 33.0761 22.0826 33.1669 22.3766C33.3523 22.9888 34.0848 23.2652 34.5595 22.9073ZM31.883 24.9253C32.2509 24.648 32.3004 24.0973 31.9913 23.6999C31.6848 23.3058 31.1331 23.2038 30.7617 23.4839C30.3994 23.757 30.338 24.3039 30.6531 24.7089C30.9553 25.0975 31.5062 25.2094 31.883 24.9253ZM29.3411 22.1789C29.8638 22.0607 30.1092 21.4802 29.8442 20.9669C29.6712 20.6318 29.3178 20.4311 28.9845 20.4417C28.4349 20.454 28.0816 20.9745 28.2473 21.511C28.3931 21.9926 28.8894 22.2838 29.3411 22.1789ZM28.7403 27.1016C29.4406 27.0854 29.7571 26.2866 29.3148 25.718C29.1275 25.4771 28.834 25.3345 28.551 25.3434C27.8544 25.3591 27.5327 26.1565 27.9765 26.727C28.1593 26.962 28.4517 27.1105 28.7403 27.1016ZM26.963 24.0603C27.3317 23.7795 27.3808 23.2329 27.0717 22.8346C26.7728 22.4494 26.2263 22.3314 25.8419 22.6191C25.4604 22.9046 25.4351 23.4582 25.7314 23.8426C26.0321 24.2327 26.5943 24.3412 26.963 24.0603ZM25.8926 29.1069C26.2282 29.166 26.5731 29.026 26.7424 28.7132C27.0331 28.1842 26.6603 27.4823 26.0458 27.3742C25.7051 27.3142 25.3626 27.46 25.196 27.7679C24.9083 28.2916 25.2714 28.9978 25.8926 29.1069ZM24.1451 26.1618C24.5795 25.963 24.7172 25.4252 24.4911 25.0031C24.2026 24.4422 23.44 24.2885 23.046 24.7488C22.7916 25.0376 22.7841 25.5107 23.0569 25.8614C23.3244 26.2053 23.7876 26.3322 24.1451 26.1618ZM22.163 23.0814C22.4227 22.7866 22.4197 22.3127 22.152 21.9687C21.969 21.7334 21.6761 21.5849 21.3883 21.5941C20.6937 21.6098 20.368 22.4046 20.8138 22.9778C21.1687 23.434 21.8234 23.4795 22.163 23.0814ZM19.8006 20.3105C20.1593 20.04 20.2265 19.4933 19.9089 19.085C19.6111 18.7021 19.0621 18.5804 18.6796 18.8688C18.3117 19.1462 18.2603 19.6951 18.5707 20.0941C18.8817 20.4939 19.435 20.5862 19.8006 20.3105ZM22.7462 30.8937C22.9109 31.044 23.1502 31.1451 23.3872 31.1378C23.9365 31.125 24.2902 30.6052 24.1244 30.0684C23.9793 29.5894 23.4839 29.2951 23.0306 29.4006C22.3674 29.5507 22.204 30.4123 22.7462 30.8937ZM21.1441 28.2541C21.4239 28.2476 21.6833 28.1051 21.8227 27.8477C22.1122 27.3207 21.7438 26.6173 21.1261 26.5086C20.5757 26.4118 20.1183 26.8499 20.1822 27.3942C20.2363 27.8949 20.6853 28.2683 21.1441 28.2541ZM18.901 25.3704C19.5149 25.3562 19.8709 24.7155 19.5722 24.137C19.4028 23.8089 19.0503 23.6014 18.7117 23.6123C18.0083 23.6281 17.697 24.43 18.1372 24.9959C18.332 25.2462 18.6301 25.3788 18.901 25.3704ZM17.124 22.3286C17.4369 22.0927 17.5318 21.6459 17.329 21.2533C17.0696 20.7505 16.4268 20.5684 16.0025 20.8868C15.6438 21.1562 15.577 21.7045 15.8941 22.1122C16.1999 22.5052 16.7517 22.6093 17.124 22.3286Z" fill="#19725C"/>
<path id="Vector_3" d="M31.6522 34.3889L38.4302 29.2455L40.1358 31.4522L33.3578 36.5955L31.6522 34.3889Z" fill="#19725C"/>
<path id="Vector_4" d="M45.3275 38.3761C46.8535 40.3341 46.6132 43.0421 44.7917 44.4126C42.9702 45.7831 40.2468 45.3051 38.7207 43.3471L34.2927 37.6654L40.8994 32.6944L45.3275 38.3761ZM42.1313 39.6543C41.8256 39.2621 41.282 39.1666 40.9171 39.4411C40.5522 39.7157 40.5043 40.2563 40.8099 40.6485L41.3635 41.3587C41.6691 41.7508 42.2127 41.8463 42.5776 41.5718C42.9425 41.2972 42.9905 40.7566 42.6848 40.3645L42.1313 39.6543Z" fill="#19725C"/>
</g>
</g>
</svg>
