<svg width="70" height="75" viewBox="0 0 70 75" fill="none" xmlns="http://www.w3.org/2000/svg">
<g id="Frame 1542">
<path id="&#209;&#128;&#208;&#176;&#209;&#129;&#209;&#135;&#208;&#181;&#209;&#129;&#208;&#186;&#208;&#176; &#208;&#189;&#208;&#176; &#209;&#132;" d="M46.7832 10.1855L46.0614 10.8898C45.8911 11.0576 45.7811 11.2788 45.7492 11.5178C45.7173 11.7568 45.7652 11.9998 45.8854 12.2075L50.1275 19.4756L49.3413 20.2322L43.9276 14.4754C43.8378 14.3517 43.723 14.2492 43.5909 14.1748C43.4588 14.1003 43.3125 14.0556 43.162 14.0437C43.0114 14.0318 42.8601 14.053 42.7182 14.1058C42.5764 14.1586 42.4472 14.2419 42.3397 14.3499C42.2321 14.4579 42.1485 14.5882 42.0946 14.732C42.0407 14.8757 42.0177 15.0295 42.0272 15.1831C42.0367 15.3366 42.0785 15.4862 42.1497 15.6218C42.2209 15.7574 42.3199 15.8758 42.4399 15.969L47.8536 21.7259L46.131 23.3541L40.7068 17.5971C40.5135 17.3928 40.2487 17.2748 39.9702 17.2688C39.6917 17.2628 39.4221 17.3693 39.2203 17.5651C39.0196 17.7621 38.9035 18.0319 38.8974 18.3156C38.8913 18.5993 38.9957 18.8739 39.1877 19.0793L44.6014 24.8361L42.9095 26.508L37.4958 20.7512C37.4 20.6484 37.2851 20.566 37.1578 20.5088C37.0305 20.4515 36.8933 20.4204 36.7541 20.4175C36.6149 20.4145 36.4765 20.4396 36.3469 20.4913C36.2173 20.5431 36.0989 20.6205 35.9988 20.719C35.7997 20.9149 35.6841 21.1825 35.6769 21.4642C35.673 21.6055 35.6966 21.7462 35.7463 21.8781C35.7959 22.0101 35.8707 22.1307 35.9662 22.2332L41.3905 27.9903L39.6881 29.6619L34.2743 23.9051C34.0811 23.7008 33.8163 23.5828 33.5378 23.5768C33.2593 23.5709 32.9896 23.6774 32.7878 23.8731C32.688 23.9714 32.6081 24.0887 32.5528 24.2184C32.4975 24.3482 32.4679 24.4877 32.4657 24.629C32.4619 24.7703 32.4854 24.911 32.5351 25.043C32.5847 25.175 32.6595 25.2956 32.755 25.3981L38.1688 31.1549L36.4771 32.8161L31.0634 27.0592C30.8735 26.85 30.6097 26.7262 30.33 26.7152C30.0504 26.7041 29.7778 26.8067 29.5722 27.0003C29.3666 27.1939 29.2449 27.4627 29.2338 27.7476C29.2228 28.0325 29.3232 28.3101 29.5132 28.5193L34.9269 34.2761L33.2556 35.97L27.8419 30.2131C27.6534 30.0025 27.3904 29.8768 27.1108 29.8638C26.8312 29.8507 26.5579 29.9513 26.3509 30.1435C26.2485 30.2386 26.1654 30.3534 26.1064 30.4812C26.0475 30.609 26.0138 30.7474 26.0074 30.8884C25.9943 31.1733 26.0929 31.4516 26.2814 31.6622L31.6951 37.4191L30.9194 38.176L23.9732 33.5465C23.7736 33.4125 23.5352 33.3517 23.2971 33.3739C23.0589 33.3961 22.8352 33.5001 22.6626 33.6688L21.9408 34.3731C21.7465 34.5692 21.6345 34.8346 21.6285 35.1131C21.6226 35.3916 21.723 35.6615 21.9087 35.8658L27.1161 41.8975L12.2589 56.4261C11.8427 56.8314 11.5095 57.3167 11.2789 57.854C11.0483 58.3913 10.9247 58.9698 10.9154 59.5559C10.9 60.1445 10.9998 60.7301 11.209 61.2787C11.4181 61.8274 11.7324 62.328 12.1335 62.7515C12.941 63.6041 14.047 64.0966 15.2103 64.1216C16.3735 64.1466 17.4997 63.7021 18.3431 62.885L56.9556 25.1876C58.6901 23.4951 58.4827 20.3857 56.4925 18.2694L48.2276 10.2165C48.0361 10.0251 47.78 9.91528 47.5117 9.90951C47.2433 9.90375 46.9828 10.0024 46.7832 10.1855Z" fill="#309A81"/>
</g>
</svg>
