<svg width="65" height="61" viewBox="0 0 65 61" fill="none" xmlns="http://www.w3.org/2000/svg">
<g id="Frame 1537">
<path id="Vector" d="M55.5659 41.494C54.3664 42.9552 52.7923 43.9871 51.136 44.3992C49.8132 44.7296 48.5149 44.6372 47.4102 44.1531C46.994 43.9707 46.6115 43.7368 46.2593 43.4469C44.9811 42.3883 44.3055 40.7074 44.4075 38.835C44.4977 37.1274 45.2144 35.3858 46.4142 33.9241C47.6187 32.465 49.1928 31.4331 50.8441 31.0188C52.6615 30.5654 54.4376 30.9115 55.7208 31.9711C56.999 33.0298 57.6791 34.7126 57.5776 36.5852C57.4824 38.2907 56.7707 40.0344 55.5659 41.494ZM26.4993 23.7346C28.2376 24.4964 30.3201 24.2545 32.2145 23.0699C33.9331 21.9965 35.3882 20.2411 36.3114 18.127C37.2356 16.0105 37.5346 13.749 37.1549 11.7561C36.7372 9.55894 35.501 7.8627 33.7628 7.10096C32.02 6.33726 29.9375 6.57916 28.0434 7.76329C26.3291 8.83858 24.8741 10.594 23.95 12.7101C23.0267 14.8246 22.7277 17.0861 23.103 19.077C23.5204 21.2747 24.7566 22.9709 26.4993 23.7346ZM41.5325 30.3225C43.2752 31.0862 45.3578 30.8443 47.2521 29.6596C48.9663 28.5844 50.4214 26.8289 51.3446 24.7148C52.2688 22.5983 52.5678 20.3368 52.1925 18.3459C51.7749 16.1487 50.5387 14.4525 48.796 13.6888C47.0577 12.927 44.9751 13.1689 43.081 14.3531C41.3623 15.4264 39.9073 17.1818 38.9833 19.2979C38.0599 21.4124 37.7609 23.6739 38.1406 25.6668C38.558 27.8645 39.7942 29.5607 41.5325 30.3225ZM20.5452 22.589C20.7974 20.712 20.4857 18.8531 19.6685 17.3571C18.7673 15.7123 17.308 14.6406 15.6603 14.4159C14.0122 14.1922 12.3215 14.8361 11.0175 16.1818C9.83147 17.4092 9.03684 19.1165 8.78409 20.9933C8.52709 22.8676 8.83908 24.726 9.6612 26.2242C10.3168 27.4215 11.2658 28.314 12.3705 28.7981C12.7818 28.9783 13.2178 29.1031 13.6649 29.1634C15.313 29.3872 17.0038 28.7433 18.3077 27.3976C19.4982 26.1722 20.2889 24.463 20.5452 22.589ZM40.7735 36.2982C39.4049 32.5203 36.8289 29.6425 33.5096 28.188C30.1904 26.7334 26.3273 26.7894 22.639 28.3508C19.1153 29.8373 15.8914 32.6293 13.5552 36.2129C12.0668 38.4996 11.7787 41.2016 12.7728 43.6295C13.8067 46.156 15.9195 47.7112 18.5692 47.899C20.5307 48.0357 22.4539 48.512 24.2844 49.3141C26.115 50.1163 27.7695 51.2078 29.2011 52.5581C29.7985 53.1201 30.4559 53.5568 31.1539 53.8626C32.721 54.5494 34.4957 54.5834 36.2607 53.9224C38.7198 53.0077 40.5055 50.962 41.171 48.3147C42.2122 44.1641 42.0714 39.8971 40.7735 36.2982Z" fill="url(#paint0_linear_399_767)"/>
</g>
<defs>
<linearGradient id="paint0_linear_399_767" x1="41.2792" y1="10.3948" x2="23.6683" y2="50.5823" gradientUnits="userSpaceOnUse">
<stop stop-color="#2CA88A"/>
<stop offset="1" stop-color="#2AA385"/>
</linearGradient>
</defs>
</svg>
