<svg width="69" height="56" viewBox="0 0 69 56" fill="none" xmlns="http://www.w3.org/2000/svg">
<g id="&#209;&#128;&#208;&#176;&#209;&#129;&#209;&#135;&#208;&#181;&#209;&#129;&#208;&#186;&#208;&#176; &#208;&#189;&#208;&#176; &#208;&#186;&#209;&#128;&#208;&#176;&#209;&#129;&#208;&#189;&#208;&#190;&#208;&#188;">
<g id="Group">
<path id="Vector" d="M57.6815 17.5967L40.257 4.46321C37.5487 2.4218 33.4987 3.13406 31.229 6.05096L22.6359 17.0943C20.3662 20.0113 20.7231 24.0451 23.4315 26.0865L40.856 39.2199C43.5644 41.2614 47.6143 40.5491 49.884 37.6322L58.4771 26.5889C60.7468 23.672 60.3899 19.6381 57.6815 17.5967ZM46.9557 35.5475C45.7132 37.1444 43.4961 37.5343 42.0133 36.4167L25.8796 24.2561C24.3969 23.1385 24.2015 20.9303 25.4441 19.3334L34.1573 8.13562C35.3998 6.53874 37.6169 6.14883 39.0997 7.26641L55.2334 19.427C56.7161 20.5446 56.9115 22.7529 55.6689 24.3497L46.9557 35.5475Z" fill="#19725C"/>
<path id="Vector_2" d="M54.0481 20.97L37.8955 8.79101C37.2028 8.26872 36.1668 8.45099 35.5863 9.1973L26.8624 20.4124C26.2819 21.1587 26.3732 22.1909 27.0659 22.7132L43.2185 34.8922C43.9112 35.4145 44.9472 35.2323 45.5277 34.486L54.2516 23.2708C54.8321 22.5245 54.7408 21.4923 54.0481 20.97ZM45.5205 17.3539C45.9579 17.277 46.3738 17.516 46.5011 17.9411C46.5895 18.227 46.5213 18.5667 46.3206 18.8248C45.8995 19.366 45.0882 19.3651 44.7724 18.7901C44.4629 18.2182 44.8618 17.4698 45.5205 17.3539ZM42.9334 20.4982C43.4072 20.3128 43.9446 20.5342 44.0945 21.035C44.2163 21.4287 44.043 21.9204 43.6289 22.1724C43.1754 22.4516 42.6104 22.3293 42.3658 21.8839C42.0931 21.3798 42.3682 20.7138 42.9334 20.4982ZM42.8326 15.1751C43.0708 15.1805 43.3012 15.2794 43.4607 15.4659C43.8327 15.9018 43.6832 16.5975 43.1639 16.9134C42.6437 17.2336 41.9995 17.017 41.8327 16.4606C41.6428 15.8454 42.171 15.1542 42.8326 15.1751ZM40.2423 18.2826C40.6082 18.2182 40.9755 18.375 41.1541 18.705C41.3941 19.1422 41.2152 19.7286 40.7573 20.0072C40.0806 20.4238 39.3087 19.9223 39.394 19.1916C39.4433 18.7355 39.8048 18.3595 40.2423 18.2826ZM37.3514 17.9901C36.7555 17.9763 36.3843 17.4135 36.5605 16.8428C36.7381 16.2561 37.3992 15.9434 37.9025 16.1834C38.4172 16.4199 38.5512 17.0992 38.1708 17.5883C37.9767 17.8378 37.664 17.9998 37.3514 17.9901ZM34.9448 21.084C34.2871 21.0687 33.9046 20.3867 34.2249 19.7619C34.4382 19.3516 34.9001 19.1207 35.3274 19.2201C35.8159 19.3306 36.0966 19.834 35.9388 20.345C35.8027 20.7945 35.3716 21.0971 34.9448 21.084ZM39.5968 13.0741C39.9404 12.9397 40.3448 13.0152 40.5891 13.3007C40.9083 13.6629 40.8551 14.271 40.4457 14.6344C40.0876 14.9525 39.5928 14.9792 39.2579 14.7266C38.6861 14.2955 38.8791 13.3479 39.5968 13.0741ZM29.1665 21.8429C28.6552 21.4574 28.7449 20.6337 29.3354 20.2744C29.8566 19.9535 30.5007 20.173 30.6666 20.7272C30.7572 21.02 30.6815 21.3595 30.4861 21.6108C30.1571 22.0337 29.5652 22.1436 29.1665 21.8429ZM32.2763 17.0325C32.8631 17.0457 33.2457 17.6017 33.0672 18.1798C32.993 18.4248 32.829 18.636 32.6075 18.7707C32.0227 19.1308 31.3006 18.8042 31.2418 18.1398C31.1887 17.5392 31.7112 17.0147 32.2763 17.0325ZM34.3003 15.8025C33.9323 15.7193 33.681 15.414 33.6484 15.046C33.6031 14.5329 33.9864 14.0425 34.4991 13.9523C35.3238 13.8073 35.8347 14.7347 35.2992 15.4231C35.0647 15.7246 34.6722 15.8889 34.3003 15.8025ZM36.5377 12.6523C36.1571 12.4782 35.9571 12.0321 36.0955 11.5838C36.2106 11.2037 36.5366 10.9235 36.9057 10.8585C37.4191 10.7682 37.8756 11.1119 37.9208 11.6238C37.9425 11.8684 37.864 12.1259 37.7058 12.3293C37.4131 12.7056 36.9235 12.8284 36.5377 12.6523ZM32.0381 24.0081C31.5268 23.6225 31.6165 22.7988 32.207 22.4396C32.6089 22.1921 33.0966 22.2636 33.3694 22.5822C33.5585 22.7969 33.6296 23.1234 33.5322 23.4388C33.3333 24.0956 32.5474 24.3921 32.0381 24.0081ZM34.9097 26.1733C34.515 25.8756 34.4618 25.2848 34.7934 24.8585C35.1224 24.4357 35.7142 24.3263 36.1127 24.6267C36.5014 24.9198 36.5673 25.5065 36.2292 25.9411C35.905 26.3579 35.3139 26.4781 34.9097 26.1733ZM37.6368 23.2266C37.0761 23.0998 36.8128 22.477 37.0971 21.9263C37.2826 21.5668 37.6619 21.3515 38.0195 21.3628C38.6091 21.376 38.9882 21.9345 38.8104 22.5101C38.6539 23.0268 38.1215 23.3392 37.6368 23.2266ZM38.2814 28.5081C37.5301 28.4908 37.1905 27.6337 37.665 27.0237C37.866 26.7652 38.1809 26.6122 38.4845 26.6218C39.2318 26.6386 39.577 27.4941 39.1008 28.1062C38.9047 28.3583 38.5911 28.5176 38.2814 28.5081ZM40.1882 25.2452C39.7926 24.9439 39.74 24.3574 40.0716 23.9301C40.3923 23.5168 40.9786 23.3903 41.3911 23.6989C41.8003 24.0052 41.8275 24.5992 41.5096 25.0116C41.1869 25.4301 40.5838 25.5466 40.1882 25.2452ZM41.3366 30.6596C40.9765 30.7229 40.6066 30.5727 40.4249 30.2372C40.1131 29.6696 40.513 28.9165 41.1723 28.8005C41.5378 28.7362 41.9053 28.8926 42.084 29.2229C42.3927 29.7848 42.0031 30.5424 41.3366 30.6596ZM43.2115 27.4998C42.7454 27.2865 42.5977 26.7095 42.8402 26.2566C43.1498 25.6549 43.9679 25.49 44.3907 25.9838C44.6637 26.2937 44.6717 26.8013 44.379 27.1776C44.092 27.5465 43.5951 27.6827 43.2115 27.4998ZM45.3381 24.1949C45.0595 23.8787 45.0627 23.3703 45.3498 23.0012C45.5462 22.7487 45.8604 22.5893 46.1692 22.5993C46.9144 22.6161 47.2639 23.4688 46.7856 24.0837C46.4048 24.5733 45.7024 24.622 45.3381 24.1949ZM47.8726 21.2221C47.4877 20.9319 47.4156 20.3453 47.7564 19.9073C48.076 19.4965 48.6649 19.3659 49.0753 19.6753C49.47 19.9729 49.5252 20.5618 49.1922 20.9899C48.8585 21.4189 48.2649 21.5178 47.8726 21.2221ZM44.7123 32.5766C44.5356 32.7378 44.2789 32.8463 44.0246 32.8384C43.4353 32.8247 43.0558 32.267 43.2337 31.6911C43.3894 31.1772 43.9208 30.8614 44.4072 30.9746C45.1187 31.1357 45.294 32.0601 44.7123 32.5766ZM46.4311 29.7446C46.131 29.7377 45.8526 29.5847 45.7031 29.3086C45.3925 28.7432 45.7878 27.9885 46.4505 27.8719C47.041 27.768 47.5317 28.238 47.4632 28.822C47.4051 29.3593 46.9234 29.7598 46.4311 29.7446ZM48.8377 26.6508C48.1791 26.6355 47.7972 25.9481 48.1177 25.3274C48.2994 24.9754 48.6775 24.7528 49.0409 24.7645C49.7956 24.7815 50.1295 25.6418 49.6572 26.249C49.4482 26.5175 49.1284 26.6598 48.8377 26.6508ZM50.7442 23.3872C50.4086 23.1342 50.3068 22.6548 50.5243 22.2336C50.8026 21.6942 51.4923 21.4988 51.9474 21.8404C52.3323 22.1294 52.404 22.7177 52.0637 23.1551C51.7357 23.5768 51.1437 23.6885 50.7442 23.3872Z" fill="#19725C"/>
<path id="Vector_3" d="M35.1572 36.3264L27.8853 30.8082L26.0554 33.1757L33.3273 38.6938L35.1572 36.3264Z" fill="#19725C"/>
<path id="Vector_4" d="M20.485 40.6041C18.8478 42.7049 19.1057 45.6102 21.0599 47.0806C23.0141 48.551 25.936 48.0381 27.5733 45.9374L32.3241 39.8417L25.2358 34.5084L20.485 40.6041ZM23.9142 41.9755C24.2421 41.5547 24.8254 41.4523 25.2169 41.7468C25.6083 42.0414 25.6598 42.6214 25.3318 43.0421L24.738 43.8041C24.4101 44.2249 23.8268 44.3273 23.4353 44.0327C23.0438 43.7382 22.9924 43.1582 23.3203 42.7374L23.9142 41.9755Z" fill="#19725C"/>
</g>
</g>
</svg>
