<svg width="79" height="85" viewBox="0 0 79 85" fill="none" xmlns="http://www.w3.org/2000/svg">
<g id="Frame 1541">
<path id="&#209;&#128;&#208;&#176;&#209;&#129;&#209;&#135;&#208;&#181;&#209;&#129;&#208;&#186;&#208;&#176; &#208;&#189;&#208;&#176; &#209;&#132;" d="M52.9874 11.5363L52.1699 12.334C51.977 12.524 51.8524 12.7745 51.8162 13.0452C51.7801 13.316 51.8344 13.5911 51.9705 13.8264L56.7752 22.0583L55.8847 22.9153L49.753 16.395C49.6514 16.255 49.5213 16.1389 49.3717 16.0545C49.2221 15.9702 49.0565 15.9196 48.8859 15.9061C48.7154 15.8926 48.544 15.9166 48.3833 15.9765C48.2226 16.0363 48.0764 16.1306 47.9546 16.2529C47.8327 16.3753 47.738 16.5229 47.677 16.6857C47.6159 16.8485 47.5899 17.0227 47.6007 17.1966C47.6114 17.3704 47.6587 17.5399 47.7394 17.6935C47.82 17.8471 47.9321 17.9812 48.0681 18.0868L54.1998 24.6071L52.2487 26.4513L46.1051 19.9307C45.8863 19.6994 45.5864 19.5657 45.2709 19.5589C44.9554 19.5521 44.6501 19.6728 44.4215 19.8945C44.1942 20.1176 44.0627 20.4232 44.0558 20.7446C44.0489 21.0659 44.1671 21.3768 44.3846 21.6095L50.5163 28.1298L48.6 30.0234L42.4684 23.5031C42.3598 23.3867 42.2297 23.2934 42.0855 23.2285C41.9413 23.1637 41.7859 23.1285 41.6283 23.1251C41.4707 23.1217 41.3139 23.1502 41.1671 23.2088C41.0202 23.2674 40.8862 23.3551 40.7728 23.4667C40.5473 23.6885 40.4164 23.9916 40.4082 24.3107C40.4038 24.4707 40.4305 24.63 40.4868 24.7795C40.543 24.929 40.6277 25.0656 40.7359 25.1817L46.8795 31.7022L44.9513 33.5956L38.8196 27.0753C38.6008 26.8439 38.3009 26.7103 37.9854 26.7035C37.67 26.6967 37.3646 26.8174 37.136 27.0391C37.0229 27.1504 36.9324 27.2833 36.8698 27.4302C36.8072 27.5771 36.7737 27.7351 36.7711 27.8952C36.7668 28.0553 36.7935 28.2146 36.8497 28.3641C36.906 28.5136 36.9906 28.6502 37.0989 28.7663L43.2305 35.2865L41.3145 37.168L35.1829 30.6477C34.9678 30.4107 34.669 30.2706 34.3522 30.258C34.0355 30.2455 33.7267 30.3617 33.4939 30.581C33.2611 30.8003 33.1232 31.1047 33.1107 31.4274C33.0982 31.75 33.212 32.0644 33.4271 32.3014L39.5587 38.8217L37.6658 40.7402L31.5342 34.2199C31.3207 33.9813 31.0228 33.839 30.7061 33.8242C30.3894 33.8094 30.0798 33.9233 29.8454 34.141C29.7294 34.2488 29.6353 34.3787 29.5685 34.5235C29.5018 34.6683 29.4636 34.825 29.4563 34.9847C29.4415 35.3073 29.5532 35.6226 29.7667 35.8612L35.8983 42.3815L35.0198 43.2387L27.1523 37.9953C26.9263 37.8436 26.6563 37.7746 26.3866 37.7998C26.1169 37.825 25.8635 37.9427 25.668 38.1338L24.8505 38.9315C24.6304 39.1537 24.5036 39.4542 24.4968 39.7696C24.49 40.0851 24.6038 40.3907 24.8142 40.6222L30.7121 47.4538L13.8846 63.9092C13.4131 64.3681 13.0359 64.9178 12.7746 65.5264C12.5134 66.1349 12.3734 66.7902 12.3629 67.454C12.3455 68.1206 12.4585 68.7839 12.6954 69.4053C12.9323 70.0267 13.2882 70.5938 13.7425 71.0734C14.6572 72.039 15.9099 72.5968 17.2274 72.6251C18.5449 72.6535 19.8204 72.15 20.7757 71.2246L64.5088 28.5279C66.4733 26.611 66.2384 23.0892 63.9843 20.6922L54.6233 11.5714C54.4064 11.3546 54.1164 11.2302 53.8124 11.2237C53.5085 11.2171 53.2134 11.3289 52.9874 11.5363Z" fill="#309A81"/>
</g>
</svg>
