<svg width="72" height="73" viewBox="0 0 72 73" fill="none" xmlns="http://www.w3.org/2000/svg">
<path d="M53.8961 25.8735C54.3122 27.3629 54.2646 28.8993 53.7631 30.198C53.3635 31.2357 52.692 32.0576 51.8489 32.5656C51.5312 32.7569 51.1949 32.9015 50.8353 32.9994C49.5257 33.3519 48.0821 33.0089 46.8751 32.0572C45.7732 31.1911 44.9426 29.8913 44.5263 28.4016C44.114 26.9099 44.1616 25.3735 44.6593 24.0772C45.2087 22.6516 46.2746 21.631 47.5871 21.2757C48.8967 20.9232 50.3438 21.2642 51.5511 22.2156C52.6493 23.084 53.4836 24.3815 53.8961 25.8735ZM28.3476 36.8684C29.6742 36.0691 30.4899 34.5666 30.5854 32.7447C30.6731 31.0923 30.1799 29.2938 29.1966 27.6806C28.2121 26.0655 26.837 24.7988 25.3232 24.1113C23.6547 23.3527 21.9375 23.3762 20.6109 24.1754C19.2809 24.9768 18.4652 26.4792 18.3694 28.3008C18.2852 29.9511 18.7784 31.7497 19.7626 33.3644C20.7461 34.978 22.1213 36.2447 23.6317 36.9342C25.3004 37.6932 27.0176 37.6697 28.3476 36.8684ZM39.8207 29.956C41.1507 29.1547 41.9664 27.6522 42.0619 25.8302C42.1462 24.1799 41.653 22.3814 40.6697 20.7682C39.6852 19.1531 38.3101 17.8864 36.7997 17.1969C35.1312 16.4382 33.414 16.4617 32.084 17.2631C30.7574 18.0623 29.9417 19.5648 29.8459 21.3864C29.7583 23.0387 30.2515 24.8373 31.2357 26.452C32.2192 28.0656 33.5944 29.3323 35.1082 30.0198C36.7769 30.7788 38.4941 30.7553 39.8207 29.956ZM24.7843 40.2969C23.6449 39.2428 22.2527 38.5733 20.8665 38.4119C19.3412 38.2364 17.9378 38.7034 17.0136 39.6958C16.0899 40.6889 15.7275 42.1199 16.0171 43.6243C16.2828 44.9943 17.0539 46.3299 18.1929 47.3842C19.3283 48.4401 20.7202 49.1093 22.1102 49.2684C23.2204 49.3964 24.264 49.185 25.1072 48.677C25.421 48.4879 25.7094 48.2561 25.9597 47.9866C26.8835 46.9935 27.2458 45.5624 26.9562 44.0581C26.694 42.686 25.9198 41.3523 24.7843 40.2969ZM43.4689 33.2824C40.2946 32.4117 37.1566 32.7707 34.6234 34.2969C32.0902 35.8231 30.314 38.4249 29.6286 41.6205C28.9703 44.6712 29.3277 48.1382 30.6324 51.3869C31.4659 53.4585 33.1414 54.9258 35.2352 55.409C37.4137 55.9123 39.4479 55.2378 40.8178 53.5601C41.8304 52.317 43.0526 51.2597 44.4496 50.418C45.8466 49.5763 47.355 48.9885 48.932 48.6714C49.5891 48.5384 50.1904 48.3063 50.7231 47.9853C51.9191 47.2648 52.7752 46.0978 53.1608 44.6091C53.7025 42.5381 53.17 40.3821 51.7083 38.689C49.4157 36.036 46.49 34.1158 43.4689 33.2824Z" fill="#9E75BC"/>
</svg>
