<svg width="61" height="59" viewBox="0 0 61 59" fill="none" xmlns="http://www.w3.org/2000/svg">
<path d="M19.3786 34.9811C17.6704 35.8577 15.9036 36.2698 14.0783 36.2173C12.2531 36.1649 10.5664 35.6816 9.01831 34.7676C7.50582 33.8353 6.32042 32.5328 5.46209 30.8602C4.60376 29.1876 4.23687 27.4651 4.36143 25.6927C4.52157 23.9021 5.12164 22.2679 6.16164 20.79C7.18338 19.2766 8.54836 18.0816 10.2566 17.205C11.9648 16.3284 13.7315 15.9163 15.5568 15.9688C17.3638 15.9856 19.0236 16.4602 20.5361 17.3925C22.0841 18.3066 23.2873 19.5999 24.1457 21.2725C25.004 22.9451 25.3531 24.6768 25.1929 26.4674C25.0684 28.2398 24.4953 29.8827 23.4735 31.3961C22.4518 32.9095 21.0868 34.1045 19.3786 34.9811ZM28.4681 8.66879L35.6747 4.97068L33.3625 50.6669L26.2094 54.3376L28.4681 8.66879ZM16.2269 28.708C16.9031 28.3611 17.336 27.8467 17.5256 27.1649C17.7326 26.4293 17.6261 25.6522 17.2061 24.8337C16.8043 24.0507 16.2442 23.5289 15.5259 23.268C14.8432 22.9889 14.1638 23.0229 13.4876 23.3699C12.7402 23.7534 12.2631 24.313 12.0561 25.0486C11.8665 25.7304 11.9817 26.4805 12.4017 27.2991C12.8217 28.1176 13.3731 28.6664 14.0558 28.9455C14.7203 29.189 15.444 29.1098 16.2269 28.708ZM51.5467 42.0773C49.8385 42.9538 48.0718 43.3659 46.2465 43.3135C44.4212 43.261 42.7345 42.7778 41.1864 41.8638C39.674 40.9315 38.4886 39.629 37.6302 37.9564C36.7719 36.2837 36.405 34.5612 36.5296 32.7889C36.6897 30.9983 37.2898 29.364 38.3298 27.8862C39.3515 26.3728 40.7165 25.1778 42.4247 24.3012C44.1329 23.4246 45.8997 23.0125 47.725 23.0649C49.532 23.0818 51.1917 23.5564 52.7042 24.4887C54.2523 25.4027 55.4555 26.6961 56.3138 28.3687C57.1721 30.0413 57.5212 31.7729 57.3611 33.5636C57.2365 35.3359 56.6634 36.9788 55.6416 38.4922C54.6199 40.0057 53.2549 41.2007 51.5467 42.0773ZM48.3951 35.8042C49.0712 35.4572 49.5041 34.9428 49.6938 34.2611C49.9008 33.5254 49.7942 32.7483 49.3742 31.9298C48.9724 31.1469 48.4124 30.625 47.6941 30.3642C47.0113 30.0851 46.3319 30.1191 45.6557 30.466C44.9084 30.8496 44.4312 31.4091 44.2243 32.1448C44.0346 32.8266 44.1498 33.5767 44.5698 34.3952C44.9899 35.2137 45.5413 35.7625 46.224 36.0416C46.8884 36.2851 47.6121 36.206 48.3951 35.8042Z" fill="#9E75BC"/>
</svg>
