<svg width="50" height="49" viewBox="0 0 50 49" fill="none" xmlns="http://www.w3.org/2000/svg">
<g id="Frame 1611">
<g id="Group">
<path id="Vector" fill-rule="evenodd" clip-rule="evenodd" d="M20.7771 11.5859C17.5829 6.22727 25.6101 1.36196 28.8399 6.64678C32.0342 12.0054 24.007 16.8707 20.7771 11.5859Z" fill="#9E75BC"/>
<path id="Vector_2" fill-rule="evenodd" clip-rule="evenodd" d="M10.2226 40.7723L11.9204 39.3242L13.18 32.3655L16.3521 27.7618L18.5866 28.2208L20.3034 26.8278C20.3672 26.1287 20.8153 25.4816 21.5244 25.2367C25.5608 23.8423 26.8452 20.1369 26.1138 17.3124C25.0712 13.0568 31.5881 10.0056 33.8663 13.7729L39.2628 22.6788C40.1409 24.1602 39.5256 28.7423 39.4029 30.5079L44.2576 28.831C47.3122 27.7758 48.9455 32.5043 45.8909 33.5595L37.5452 36.4423C35.9088 37.0076 34.1745 35.6988 34.2428 33.952L34.4669 30.182L31.8608 32.0054L35.0219 37.6217C36.631 40.5123 32.2794 42.9386 30.6703 40.048L26.4056 32.4743C24.9081 29.7298 29.3737 27.6334 31.3466 26.2749L29.3484 22.9648C28.4479 25.3068 23.9379 29.5726 21.478 28.6375L20.0505 29.8076L18.5595 39.9849L20.3921 44.5831C20.9214 45.9388 18.9222 46.6909 18.4118 45.3902L17.2226 42.4777L17.8332 45.8362C18.1254 47.2123 15.9932 47.5796 15.7556 46.1847L14.7149 40.6975L13.0853 40.3988L11.2619 42.0134C10.4485 42.6636 9.42826 41.4775 10.2226 40.7723Z" fill="#9E75BC"/>
<path id="Vector_3" fill-rule="evenodd" clip-rule="evenodd" d="M15.1559 25.7134C15.1038 25.916 14.9781 26.0825 14.907 26.2301C14.8359 26.3778 15.8182 27.454 15.8182 27.454L12.7718 31.8912C11.3506 30.7819 9.26039 28.7961 7.68294 28.2948C5.26783 26.6057 7.17211 25.5787 9.24779 26.4618C9.50396 26.4964 9.45139 25.2837 11.7424 24.4923C11.9771 24.2881 12.9488 21.7985 14.028 21.918C15.1263 22.0926 15.6152 23.1545 15.5918 24.1473C15.5991 24.6987 15.4238 25.2516 15.1559 25.7134Z" fill="#9E75BC"/>
</g>
</g>
</svg>
