<svg width="52" height="51" viewBox="0 0 52 51" fill="none" xmlns="http://www.w3.org/2000/svg">
<g id="Frame 1612">
<g id="Group">
<path id="Vector" fill-rule="evenodd" clip-rule="evenodd" d="M31.4721 13.3862C32.8116 7.29331 41.9938 9.24142 40.7307 15.3049C39.3912 21.3978 30.209 19.4497 31.4721 13.3862Z" fill="#9E75BC"/>
<path id="Vector_2" fill-rule="evenodd" clip-rule="evenodd" d="M3.80033 27.4377L6.02924 27.5442L11.7109 23.3337L17.1747 22.149L18.4893 24.0132L20.6945 24.1728C21.2195 23.7069 21.9891 23.5419 22.6737 23.8488C26.5707 25.5954 30.0435 23.7734 31.4437 21.2136C33.5967 17.3977 40.4361 19.6344 39.5181 23.9402L37.3557 34.1265C36.9817 35.8075 33.3967 38.7267 32.0986 39.9298L36.7855 42.0304C39.7346 43.3522 37.6885 47.9173 34.7394 46.5955L26.6821 42.9842C25.1023 42.2761 24.7339 40.1349 25.9793 38.9082L28.7234 36.3134L25.5754 35.8586L24.0354 42.1167C23.2297 45.3253 18.3965 44.1153 19.2022 40.9067L21.2777 32.4662C22.0647 29.4404 26.7551 30.969 29.1233 31.3292L29.9325 27.5484C27.6728 28.6392 21.4651 28.6617 20.3119 26.2962L18.4703 26.172L10.4168 32.5705L8.60512 37.177C8.06299 38.5276 6.0907 37.7074 6.60904 36.4098L7.7358 33.4725L5.88193 36.3389C5.15294 37.5421 3.34719 36.3502 4.12884 35.1707L7.12632 30.4583L6.14285 29.125L3.70836 29.0538C2.67036 28.9711 2.73853 27.408 3.80033 27.4377Z" fill="#9E75BC"/>
<path id="Vector_3" fill-rule="evenodd" clip-rule="evenodd" d="M17.7037 19.8368C17.527 19.9489 17.3214 19.9842 17.1685 20.0432C17.0156 20.1021 16.995 21.5591 16.995 21.5591L11.7368 22.7084C11.4601 20.927 11.2957 18.0485 10.489 16.6032C9.88457 13.7187 11.9758 14.2735 12.8844 16.3382C13.0475 16.5387 13.8393 15.6187 16.0511 16.61C16.362 16.6219 18.7746 15.4721 19.4795 16.298C20.1606 17.177 19.7901 18.2859 19.0935 18.9936C18.7214 19.4005 18.2151 19.6836 17.7037 19.8368Z" fill="#9E75BC"/>
</g>
</g>
</svg>
