<svg width="51" height="48" viewBox="0 0 51 48" fill="none" xmlns="http://www.w3.org/2000/svg">
<path d="M29.4343 29.1759L32.5465 29.2951C33.1313 29.3209 33.7459 29.1749 34.3219 29.0119L32.2623 24.4091C31.7505 24.7389 31.2771 25.0856 30.8851 25.5605L28.8906 28.0125C28.5155 28.4487 28.8494 29.1501 29.4343 29.1759Z" fill="#9E75BC"/>
<path d="M47.2558 21.2883L46.4979 19.5686C46.1211 18.7559 45.1815 18.3893 44.3709 18.7728L34.324 23.3728L36.4435 28.0482L46.452 23.4313C47.2455 23.0866 47.6326 22.101 47.2558 21.2883Z" fill="#9E75BC"/>
<path d="M29.336 31.4898C28.9219 31.4927 28.5589 31.3795 28.2129 31.2275C27.3287 30.839 26.7087 30.0582 26.4983 29.1799C26.2665 28.246 26.5042 27.2873 27.1094 26.5362L29.0654 24.0673C29.7771 23.1781 30.6854 22.4678 31.7178 21.9969L41.1376 17.676L41.6482 16.5136C42.4994 14.5763 41.6211 12.2952 39.7374 11.4677L17.0946 1.52002C15.1725 0.675562 12.9368 1.58861 12.0857 3.52594L0.45933 29.9899C0.272082 30.4161 0.349536 30.8661 0.648852 31.2288C0.768577 31.3738 0.92235 31.4414 1.07612 31.5089C1.30678 31.6103 1.57148 31.6341 1.83178 31.5636L12.7772 28.4677L29.1538 35.6625C31.076 36.5069 33.2946 35.6326 34.1457 33.6953L35.2692 31.138C34.3817 31.4877 33.4471 31.6318 32.4481 31.6089L29.336 31.4898ZM18.6502 9.04476L33.1432 15.4119C33.7198 15.6653 33.9769 16.3329 33.7215 16.9141C33.4662 17.4953 32.8006 17.7576 32.224 17.5042L17.731 11.1371C17.1544 10.8837 16.8973 10.2161 17.1527 9.63491C17.3696 9.03682 18.0736 8.79142 18.6502 9.04476ZM22.0669 25.8001L13.0328 21.8311C12.4561 21.5778 12.1991 20.9102 12.4544 20.329C12.7098 19.7478 13.3754 19.4855 13.952 19.7388L22.9861 23.7078C23.5627 23.9611 23.8198 24.6287 23.5644 25.2099C23.3261 25.7524 22.6435 26.0534 22.0669 25.8001ZM25.9537 21.1286L15.3819 16.4841C14.8053 16.2308 14.5482 15.5631 14.8036 14.9819C15.0589 14.4007 15.7245 14.1385 16.3011 14.3918L26.8729 19.0363C27.4495 19.2896 27.7066 19.9572 27.4512 20.5384C27.1959 21.1196 26.5303 21.3819 25.9537 21.1286Z" fill="#9E75BC"/>
</svg>
