<svg width="44" height="41" viewBox="0 0 44 41" fill="none" xmlns="http://www.w3.org/2000/svg">
<path d="M27.733 20.808L29.6263 18.9038C29.9842 18.5479 30.2505 18.0729 30.4836 17.6123L26.3614 16.2303C26.2717 16.7476 26.2151 17.2503 26.2873 17.7763L26.6776 20.4734C26.7351 20.966 27.375 21.1639 27.733 20.808Z" fill="#9E75BC"/>
<path d="M33.1386 4.89892L31.6052 4.37521C30.8698 4.13952 30.0884 4.52137 29.8583 5.25945L26.9078 14.3182L31.111 15.7047L34.0283 6.6604C34.2731 5.95575 33.8741 5.1346 33.1386 4.89892Z" fill="#9E75BC"/>
<path d="M29.1424 22.2224C28.9024 22.4868 28.6186 22.6509 28.3201 22.7815C27.5573 23.1154 26.6999 23.0526 26.02 22.6731C25.2923 22.2747 24.8231 21.5639 24.7002 20.7414L24.2768 18.0589C24.1285 17.0882 24.2084 16.0972 24.5128 15.1674L27.274 6.6694L26.835 5.6666C26.1034 3.99528 24.1437 3.22002 22.5187 3.93139L2.9848 12.4823C1.32658 13.2082 0.599932 15.1594 1.33156 16.8308L11.3255 39.6611C11.4865 40.0288 11.8172 40.2425 12.222 40.2644C12.3839 40.2732 12.5166 40.2152 12.6492 40.1571C12.8482 40.07 13.0179 39.916 13.1252 39.7097L17.5544 30.9596L31.6825 24.775C33.3407 24.0491 34.082 22.1314 33.3504 20.46L32.3846 18.2539C32.0881 19.021 31.6336 19.6979 31.0356 20.3182L29.1424 22.2224ZM8.66584 15.8906L21.1688 10.4174C21.6663 10.1996 22.2399 10.4265 22.4593 10.9279C22.6788 11.4293 22.4565 12.0047 21.959 12.2224L9.45599 17.6956C8.95852 17.9134 8.38496 17.6865 8.16547 17.1851C7.91282 16.6982 8.16837 16.1084 8.66584 15.8906ZM21.2882 23.5097L13.4946 26.9213C12.9971 27.1391 12.4235 26.9122 12.204 26.4108C11.9846 25.9094 12.2069 25.3341 12.7044 25.1163L20.498 21.7046C20.9955 21.4869 21.5691 21.7138 21.7886 22.2152C21.9934 22.6831 21.7857 23.2919 21.2882 23.5097ZM20.5955 18.3161L11.4753 22.3085C10.9778 22.5262 10.4042 22.2993 10.1848 21.7979C9.96527 21.2965 10.1877 20.7212 10.6851 20.5034L19.8053 16.5111C20.3028 16.2933 20.8764 16.5202 21.0959 17.0216C21.3153 17.523 21.093 18.0983 20.5955 18.3161Z" fill="#9E75BC"/>
</svg>
