<svg width="182" height="115" viewBox="0 0 182 115" fill="none" xmlns="http://www.w3.org/2000/svg">
<g id="Rectangle 4" filter="url(#filter0_bd_57_48)">
<path d="M30.5541 22.4571C30.2779 21.2008 31.2283 20 32.5146 20H149.436C150.738 20 151.691 21.2288 151.387 22.4948C146.49 42.8976 146.639 54.5841 151.309 72.2889C151.647 73.5682 150.69 74.8353 149.367 74.8353H32.5367C31.2433 74.8353 30.292 73.6215 30.581 72.3609C34.5819 54.9103 35.1006 43.1423 30.5541 22.4571Z" fill="url(#paint0_linear_57_48)" fill-opacity="0.5" shape-rendering="crispEdges"/>
<path d="M30.7983 22.4034C30.5558 21.3004 31.3907 20.25 32.5146 20.25H149.436C150.573 20.25 151.411 21.3249 151.144 22.4364C148.693 32.6485 147.501 40.6919 147.51 48.4039C147.519 56.117 148.729 63.4871 151.068 72.3527C151.364 73.4769 150.523 74.5853 149.367 74.5853H32.5367C31.4067 74.5853 30.5709 73.5235 30.8247 72.4167C34.8336 54.9313 35.353 43.1258 30.7983 22.4034Z" stroke="url(#paint1_linear_57_48)" stroke-width="0.5" shape-rendering="crispEdges"/>
</g>
<defs>
<filter id="filter0_bd_57_48" x="-3.4939" y="-14" width="188.938" height="128.835" filterUnits="userSpaceOnUse" color-interpolation-filters="sRGB">
<feFlood flood-opacity="0" result="BackgroundImageFix"/>
<feGaussianBlur in="BackgroundImageFix" stdDeviation="17"/>
<feComposite in2="SourceAlpha" operator="in" result="effect1_backgroundBlur_57_48"/>
<feColorMatrix in="SourceAlpha" type="matrix" values="0 0 0 0 0 0 0 0 0 0 0 0 0 0 0 0 0 0 127 0" result="hardAlpha"/>
<feOffset dy="10"/>
<feGaussianBlur stdDeviation="15"/>
<feComposite in2="hardAlpha" operator="out"/>
<feColorMatrix type="matrix" values="0 0 0 0 0 0 0 0 0 0 0 0 0 0 0 0 0 0 0.1 0"/>
<feBlend mode="normal" in2="effect1_backgroundBlur_57_48" result="effect2_dropShadow_57_48"/>
<feBlend mode="normal" in="SourceGraphic" in2="effect2_dropShadow_57_48" result="shape"/>
</filter>
<linearGradient id="paint0_linear_57_48" x1="32.1644" y1="42.0064" x2="156.657" y2="42.336" gradientUnits="userSpaceOnUse">
<stop stop-color="#F4E6FF" stop-opacity="0.7"/>
<stop offset="1" stop-color="#BB99F2" stop-opacity="0.25"/>
<stop offset="1" stop-color="#D5C2F5" stop-opacity="0.25"/>
</linearGradient>
<linearGradient id="paint1_linear_57_48" x1="154.567" y1="20" x2="87.1781" y2="25.1876" gradientUnits="userSpaceOnUse">
<stop stop-color="#D8D8D8"/>
<stop offset="1" stop-color="#EFEFEF"/>
</linearGradient>
</defs>
</svg>
