<svg width="16" height="23" viewBox="0 0 16 23" fill="none" xmlns="http://www.w3.org/2000/svg">
<g id="&#208;&#183;&#208;&#176;&#208;&#188;&#208;&#190;&#208;&#186;">
<g id="Group">
<g id="Group_2">
<g id="Group_3">
<path id="Vector" fill-rule="evenodd" clip-rule="evenodd" d="M0 19.7653V11.7131C0 10.4047 0.771632 9.27536 1.88038 8.76642L1.88088 6.17937C1.88088 2.76662 4.6218 0 8 0C11.3782 0 14.1191 2.76662 14.1191 6.17937V8.76642C15.2279 9.27586 16 10.4047 16 11.7131V19.7653C16 21.5499 14.5651 23 12.7976 23H3.2024C1.43439 23 0 21.5499 0 19.7653ZM9.04882 17.8784V15.6171C9.35598 15.3508 9.55076 14.9564 9.55076 14.5155C9.55076 13.7141 8.90598 13.0639 8.11237 13.0639C7.31877 13.0639 6.67399 13.7141 6.67399 14.5155C6.67399 14.9564 6.86827 15.3508 7.17543 15.6171L7.17593 17.8784C7.17593 18.4004 7.59546 18.8241 8.11237 18.8241C8.62879 18.8241 9.04882 18.4004 9.04882 17.8784ZM11.4971 8.47841V6.17937C11.4971 4.22988 9.93033 2.64808 8 2.64808C6.06967 2.64808 4.50293 4.22988 4.50293 6.17937V8.47841H11.4971Z" fill="white"/>
</g>
</g>
</g>
</g>
</svg>
