<svg width="75" height="69" viewBox="0 0 75 69" fill="none" xmlns="http://www.w3.org/2000/svg">
<g id="Frame 1541">
<path id="&#209;&#128;&#208;&#176;&#209;&#129;&#209;&#135;&#208;&#181;&#209;&#129;&#208;&#186;&#208;&#176; &#208;&#189;&#208;&#176; &#209;&#132;" d="M9.97049 19.7559L10.6555 20.559C10.8187 20.7486 11.042 20.879 11.2894 20.929C11.5368 20.9791 11.7939 20.946 12.0193 20.8351L19.9065 16.914L20.6416 17.7881L14.2505 23.0385C14.1151 23.1236 14 23.2363 13.913 23.3691C13.8259 23.5018 13.769 23.6514 13.7461 23.8078C13.7231 23.9642 13.7346 24.1237 13.7799 24.2756C13.8251 24.4274 13.903 24.5681 14.0083 24.688C14.1135 24.808 14.2438 24.9044 14.3901 24.9707C14.5364 25.0371 14.6955 25.0719 14.8564 25.0727C15.0174 25.0735 15.1766 25.0404 15.3232 24.9755C15.4698 24.9106 15.6004 24.8156 15.7061 24.6967L22.0973 19.4462L23.6771 21.3592L17.285 26.6207C17.0581 26.8082 16.9163 27.0765 16.8906 27.3669C16.8648 27.6573 16.9572 27.9464 17.1475 28.1709C17.3391 28.3942 17.6128 28.5343 17.9086 28.5606C18.2045 28.5868 18.4985 28.497 18.7265 28.3109L25.1176 23.0604L26.7451 24.9444L20.354 30.1949C20.24 30.2877 20.1459 30.402 20.0771 30.5309C20.0084 30.6598 19.9664 30.8009 19.9535 30.9461C19.9407 31.0912 19.9572 31.2375 20.0022 31.3765C20.0471 31.5155 20.1197 31.6445 20.2156 31.756C20.4061 31.9776 20.6775 32.1171 20.9712 32.1443C21.1185 32.1583 21.2671 32.1435 21.4083 32.1009C21.5496 32.0583 21.6809 31.9887 21.7946 31.896L28.1867 26.6346L29.8132 28.5295L23.4221 33.78C23.1952 33.9675 23.0534 34.2358 23.0277 34.5262C23.0019 34.8166 23.0943 35.1057 23.2846 35.3302C23.3802 35.4413 23.4971 35.533 23.6287 35.5998C23.7603 35.6666 23.904 35.7073 24.0514 35.7195C24.1987 35.7334 24.3473 35.7186 24.4886 35.676C24.6299 35.6334 24.7611 35.5638 24.8748 35.4712L31.2659 30.2207L32.8823 32.1037L26.4911 37.3542C26.2593 37.5378 26.1116 37.8047 26.0805 38.0959C26.0493 38.3872 26.1374 38.6791 26.3252 38.9073C26.513 39.1356 26.7852 39.2815 27.0819 39.313C27.3786 39.3445 27.6755 39.259 27.9073 39.0753L34.2985 33.8249L35.9503 35.6888L29.5592 40.9393C29.326 41.1214 29.1764 41.3872 29.1431 41.6783C29.1099 41.9694 29.1958 42.2619 29.382 42.4915C29.4742 42.6052 29.5882 42.7 29.7176 42.7705C29.847 42.841 29.9891 42.8858 30.1359 42.9025C30.4325 42.936 30.73 42.8526 30.9632 42.6705L37.3544 37.42L38.0905 38.2831L32.7693 45.213C32.6155 45.412 32.5352 45.6567 32.5417 45.9069C32.5482 46.1572 32.6412 46.3981 32.8052 46.5901L33.4902 47.3933C33.6815 47.61 33.9507 47.7455 34.2411 47.7712C34.5315 47.797 34.8204 47.711 35.0468 47.5313L41.7106 42.5156L55.8426 59.0488C56.2366 59.5119 56.7201 59.8937 57.2651 60.1722C57.81 60.4507 58.4055 60.6203 59.017 60.6711C59.6305 60.7283 60.2491 60.6651 60.8367 60.4851C61.4243 60.3051 61.9692 60.012 62.4396 59.6228C63.3864 58.8391 63.9782 57.7186 64.0858 56.5056C64.1934 55.2925 63.808 54.0853 63.0138 53.1473L26.3499 10.1834C24.7039 8.25343 21.4421 8.25226 19.0926 10.1824L10.1041 18.2497C9.89071 18.4363 9.7581 18.696 9.73328 18.9758C9.70846 19.2557 9.7933 19.5347 9.97049 19.7559Z" fill="#0D4F3D"/>
</g>
</svg>
