<svg width="51" height="63" viewBox="0 0 51 63" fill="none" xmlns="http://www.w3.org/2000/svg">
<g id="Frame 1586">
<g id="Group">
<path id="Vector" d="M12.9788 10.8548L14.9532 14.6528L14.824 14.7199C13.5271 15.3941 13.0384 17.0222 13.7316 18.3557L15.441 21.6438C15.5884 21.5573 15.7301 21.4637 15.8837 21.3839L22.3346 18.0304C22.4877 17.9508 22.6456 17.8885 22.8017 17.8173L21.0924 14.5292C20.3991 13.1957 18.7853 12.6606 17.4889 13.3346L17.3597 13.4017L15.3854 9.6038L12.9788 10.8548Z" fill="#2BA688"/>
<path id="Vector_2" d="M9.16265 10.7794L19.6444 5.33046C20.26 5.01043 20.4923 4.23704 20.1631 3.60377C19.8336 2.96995 19.0671 2.71582 18.4515 3.03585L7.96979 8.48479C7.35418 8.80482 7.12153 9.57766 7.45131 10.212C7.78052 10.8453 8.54704 11.0994 9.16265 10.7794Z" fill="#2BA688"/>
<path id="Vector_3" d="M32.598 28.4069L18.5084 35.7314L23.144 44.6486L37.2336 37.324L32.598 28.4069Z" fill="#2BA688"/>
<path id="Vector_4" d="M23.177 19.6527L16.7266 23.006C11.8001 25.567 9.94144 31.752 12.5762 36.8203L24.1191 59.0244C25.2283 61.1581 27.8095 62.0139 29.8838 60.9356L46.6639 52.2124C48.7387 51.1338 49.5206 48.5297 48.4113 46.3959L36.8685 24.1919C34.2337 19.1236 28.1041 17.0914 23.177 19.6527ZM39.2307 37.3156C39.4635 37.7634 39.2991 38.3093 38.8637 38.5356L23.1981 46.6794C22.7628 46.9058 22.222 46.7265 21.9892 46.2786L16.5109 35.7404C16.278 35.2925 16.4417 34.7464 16.877 34.52L32.5426 26.3762C32.978 26.1499 33.5195 26.3295 33.7523 26.7773L39.2307 37.3156Z" fill="#2BA688"/>
</g>
</g>
</svg>
