<svg width="60" height="59" viewBox="0 0 60 59" fill="none" xmlns="http://www.w3.org/2000/svg">
<g id="Frame 1587">
<g id="Group">
<path id="Vector" d="M46.1992 11.949L43.1137 14.9158L43.0128 14.8108C41.9997 13.7572 40.2999 13.7483 39.2165 14.7901L36.5452 17.3586C36.6699 17.4756 36.7996 17.5851 36.9196 17.7099L41.9589 22.9507C42.0785 23.0751 42.1828 23.209 42.2952 23.3386L44.9665 20.7701C46.0499 19.7283 46.1072 18.0291 45.0946 16.9759L44.9936 16.8709L48.0791 13.9041L46.1992 11.949Z" fill="#0D4F3D"/>
<path id="Vector_2" d="M45.1935 8.26771L53.3815 16.7832C53.8624 17.2833 54.6699 17.2878 55.1844 16.7931C55.6994 16.2979 55.7266 15.4909 55.2457 14.9907L47.0577 6.47522C46.5768 5.97509 45.7697 5.97024 45.2543 6.4658C44.7399 6.96049 44.7126 7.76758 45.1935 8.26771Z" fill="#0D4F3D"/>
<path id="Vector_3" d="M34.9041 35.7279L23.8977 24.2812L16.6533 31.247L27.6597 42.6937L34.9041 35.7279Z" fill="#0D4F3D"/>
<path id="Vector_4" d="M40.6409 24.2174L35.6021 18.977C31.7536 14.9746 25.2956 14.9389 21.1779 18.8981L3.13905 36.2433C1.40553 37.9101 1.3138 40.6279 2.93418 42.3131L16.0423 55.9455C17.6631 57.6311 20.382 57.6455 22.1155 55.9787L40.1544 38.6336C44.272 34.6743 44.4898 28.2202 40.6409 24.2174ZM28.2325 44.6068C27.8687 44.9567 27.2986 44.9531 26.9585 44.5994L14.721 31.8725C14.3809 31.5188 14.4001 30.9494 14.764 30.5996L23.3254 22.3674C23.6893 22.0175 24.2594 22.0202 24.5995 22.3739L36.837 35.1009C37.1771 35.4546 37.1578 36.0248 36.794 36.3747L28.2325 44.6068Z" fill="#0D4F3D"/>
</g>
</g>
</svg>
