<svg width="38" height="38" viewBox="0 0 38 38" fill="none" xmlns="http://www.w3.org/2000/svg">
<g id="&#208;&#184;&#208;&#186;&#208;&#190;&#208;&#189;&#208;&#186;&#208;&#176;">
<rect width="38" height="38" rx="19" fill="#8050A3"/>
<g id="Group">
<path id="Vector" d="M17.9227 25.0352C18.0646 25.2141 18.4227 25.3667 18.7131 25.6052C19.6421 24.7128 20.1507 23.6614 20.1507 23.6614L19.3606 25.6334C19.3606 25.6334 19.0776 26.857 19.9291 26.857H23.2774C23.2774 26.857 24.2679 26.8487 24.1126 26.2043C23.7687 24.6392 22.2007 24.6392 22.2007 24.6392L22.9572 22.9281C23.233 22.0919 24.0012 18.8175 21.6447 18.104C21.6454 18.103 21.6461 18.1023 21.6471 18.1013C23.9163 18.5709 24.2765 20.7264 23.5935 23.089L25.34 26.2429C25.34 26.2429 25.5648 26.857 26.4132 26.857C26.8534 26.857 27.7323 26.857 28.3875 26.857C28.8543 26.857 29.1639 26.6911 29.149 26.2397C28.8209 24.6392 27.2295 24.6392 27.2295 24.6392L25.2632 20.0971L26.8304 15.3602C26.8304 15.3602 28.5471 15.2483 28.6368 15.2495C31.2999 15.288 30.9888 12.1727 30.9888 12.1727L28.4151 11.7747L27.6012 10.8134L25.7403 10.2763L24.8587 8.36741C24.8587 8.36741 24.5681 7.56999 24.1913 8.32471C23.7519 9.21341 22.9716 10.8468 22.3896 12.3744C21.7839 13.9633 20.4651 14.8157 19.0867 15.9647C19.1835 16.1183 19.2144 16.1566 19.2639 16.1838C19.3241 16.204 20.1111 16.3674 20.1111 16.3674C20.1111 16.3674 20.2534 17.7745 19.8257 18.4228C19.4278 19.0511 18.6048 19.321 18.5499 19.3468C18.173 19.6314 18.3672 20.5387 18.4361 20.8844C18.6151 21.7849 18.8607 23.0179 17.8711 24.6858C17.8711 24.6858 17.7754 24.85 17.9227 25.0352ZM19.368 17.8209C19.0575 18.3739 18.7673 18.4291 18.1829 18.7088C18.1829 18.7088 17.633 19.0585 17.5987 19.9327C17.5505 21.1602 18.4579 22.2756 17.255 24.3038C17.255 24.3038 16.8425 24.8286 17.3582 25.493C17.8735 26.1572 18.3449 25.8606 18.4726 26.5869C18.5165 26.8361 18.1322 26.8612 18.1366 26.8568C17.8154 26.8568 17.2613 26.8568 16.9123 26.8568C16.3973 26.8568 16.2583 26.2623 16.2583 26.2623C16.2583 26.2623 15.6437 23.6148 15.6398 23.6045C15.6398 23.6045 15.0866 21.425 12.4464 22.7521C12.4464 22.7521 15.1241 21.7062 15.4738 24.2486C15.6043 25.5274 13.9548 25.9526 14.1098 25.9502C14.419 25.9448 14.5507 25.9354 15.0199 25.9379C15.4889 25.9398 15.8669 26.0824 15.9466 26.5363C15.9905 26.7856 15.6062 26.8106 15.6108 26.8062C15.2894 26.8062 11.658 26.8062 11.3093 26.8062C10.7081 26.8062 9.63383 26.5307 9.37366 25.5478C8.85406 25.4827 8.15614 25.2786 7.71574 24.6812C7.19854 23.9794 7.19014 22.9749 7.69078 21.6961C8.54446 19.5158 8.34886 18.6772 8.20174 18.5383C8.15902 18.4983 8.00998 18.5106 7.80694 18.6112C7.52854 18.7498 7.19278 18.6323 7.05694 18.3491C6.9211 18.0658 7.0363 17.7237 7.3147 17.5856C7.95022 17.2696 8.55166 17.3118 8.96422 17.7014C9.6799 18.3769 9.59999 19.9045 8.7331 22.1189C8.4955 22.7254 8.28166 23.5429 8.61118 23.9941C8.77726 24.2213 9.06958 24.3364 9.34702 24.3914C9.68303 20.7924 12.6516 20.566 13.4563 19.7612C14.31 18.9078 14.3825 18.2645 14.3825 18.2645C14.3825 18.2645 14.6333 16.8323 15.132 15.9871C15.4241 15.4914 17.1288 14.0789 17.1288 14.0789L17.1552 15.526C17.1552 15.526 18.054 15.7145 18.3324 16.1316C18.5475 16.4535 18.6432 16.6976 18.9667 16.8559C19.0879 16.915 19.4827 16.9933 19.4827 16.9933C19.4827 16.9933 19.5622 17.4752 19.368 17.8209Z" fill="white"/>
</g>
</g>
</svg>
