<svg width="82" height="83" viewBox="0 0 82 83" fill="none" xmlns="http://www.w3.org/2000/svg">
<g id="Frame 1591">
<g id="Ellipse 6" filter="url(#filter0_d_151_98)">
<circle cx="41" cy="41" r="27" fill="white"/>
<circle cx="41" cy="41" r="26.5" stroke="url(#paint0_linear_151_98)"/>
</g>
<path id="Vector" d="M46.2973 43.2603C45.6829 42.6181 44.9159 42.6181 44.3054 43.2603C43.8398 43.7492 43.3741 44.2381 42.9162 44.7353C42.791 44.8721 42.6853 44.9011 42.5327 44.8099C42.2314 44.6359 41.9105 44.495 41.6209 44.3044C40.2708 43.4053 39.1398 42.2493 38.138 40.9483C37.641 40.3019 37.1988 39.6099 36.8897 38.831C36.827 38.6735 36.8388 38.5699 36.9601 38.4415C37.4258 37.965 37.8797 37.4761 38.3376 36.9871C38.9755 36.3076 38.9755 35.5121 38.3337 34.8284C37.9697 34.4389 37.6058 34.0577 37.2419 33.6682C36.8662 33.2705 36.4944 32.8686 36.1148 32.4749C35.5004 31.841 34.7334 31.841 34.1229 32.4791C33.6533 32.968 33.2033 33.4694 32.7259 33.95C32.2836 34.3933 32.0606 34.9361 32.0136 35.5701C31.9393 36.6018 32.178 37.5755 32.5145 38.5243C33.2033 40.4883 34.2521 42.2327 35.5239 43.8321C37.2419 45.995 39.2924 47.7062 41.6913 48.9409C42.7714 49.4961 43.8906 49.9229 45.1077 49.9934C45.9451 50.0431 46.673 49.8193 47.2561 49.1274C47.6553 48.655 48.1053 48.2241 48.5279 47.7725C49.1541 47.1012 49.158 46.2891 48.5358 45.6262C47.7922 44.8348 47.0448 44.0475 46.2973 43.2603Z" fill="#2DA789"/>
<circle id="Ellipse 7" cx="41" cy="41" r="40.5" stroke="white"/>
</g>
<defs>
<filter id="filter0_d_151_98" x="4" y="9" width="74" height="74" filterUnits="userSpaceOnUse" color-interpolation-filters="sRGB">
<feFlood flood-opacity="0" result="BackgroundImageFix"/>
<feColorMatrix in="SourceAlpha" type="matrix" values="0 0 0 0 0 0 0 0 0 0 0 0 0 0 0 0 0 0 127 0" result="hardAlpha"/>
<feOffset dy="5"/>
<feGaussianBlur stdDeviation="5"/>
<feComposite in2="hardAlpha" operator="out"/>
<feColorMatrix type="matrix" values="0 0 0 0 0 0 0 0 0 0 0 0 0 0 0 0 0 0 0.1 0"/>
<feBlend mode="normal" in2="BackgroundImageFix" result="effect1_dropShadow_151_98"/>
<feBlend mode="normal" in="SourceGraphic" in2="effect1_dropShadow_151_98" result="shape"/>
</filter>
<linearGradient id="paint0_linear_151_98" x1="69.1363" y1="14" x2="39.1675" y2="15.037" gradientUnits="userSpaceOnUse">
<stop stop-color="#D8D8D8"/>
<stop offset="1" stop-color="#EFEFEF"/>
</linearGradient>
</defs>
</svg>
