<svg width="30" height="30" viewBox="0 0 30 30" fill="none" xmlns="http://www.w3.org/2000/svg">
<g id="Frame 1617">
<rect width="30" height="30" rx="15" fill="white"/>
<path id="Vector" d="M22 17.5C22 17.763 21.9075 18.0069 21.7593 18.2215L17.0232 13.9822L21.708 10.7032C21.8902 10.9346 22 11.2064 22 11.5001V17.5ZM14.5 14.752L21.0187 10.189C20.7512 10.0718 20.45 10 20.125 10H8.87499C8.54965 10 8.24832 10.0718 7.9819 10.189L14.5 14.752ZM16.3174 14.4759L14.8085 15.5328C14.7202 15.5943 14.6103 15.625 14.5 15.625C14.3897 15.625 14.2798 15.5943 14.1915 15.5328L12.6822 14.4759L7.88622 18.7693C8.1737 18.9136 8.5106 19 8.87496 19H20.125C20.4893 19 20.8264 18.9136 21.1138 18.7693L16.3174 14.4759ZM7.29208 10.7032C7.10987 10.9346 7 11.2064 7 11.5001V17.5C7 17.7631 7.09206 18.0069 7.24079 18.2215L11.9764 13.9815L7.29208 10.7032Z" fill="url(#paint0_radial_186_153)"/>
</g>
<defs>
<radialGradient id="paint0_radial_186_153" cx="0" cy="0" r="1" gradientUnits="userSpaceOnUse" gradientTransform="translate(13.4297 11.7961) rotate(42.8104) scale(9.59514 14.4761)">
<stop stop-color="#C086EC"/>
<stop offset="1" stop-color="#8339B7"/>
</radialGradient>
</defs>
</svg>
