<svg width="30" height="30" viewBox="0 0 30 30" fill="none" xmlns="http://www.w3.org/2000/svg">
<rect width="30" height="30" rx="15" fill="url(#paint0_linear_645_5856)"/>
<path d="M17.8409 9.3195L16.367 9.31714C14.7112 9.31714 13.6411 10.415 13.6411 12.1142V13.4039H12.1592C12.0312 13.4039 11.9275 13.5077 11.9275 13.6357V15.5043C11.9275 15.6323 12.0313 15.736 12.1592 15.736H13.6411V20.4509C13.6411 20.579 13.7448 20.6827 13.8729 20.6827H15.8063C15.9344 20.6827 16.0381 20.5789 16.0381 20.4509V15.736H17.7708C17.8988 15.736 18.0025 15.6323 18.0025 15.5043L18.0032 13.6357C18.0032 13.5742 17.9788 13.5154 17.9354 13.4718C17.892 13.4283 17.8328 13.4039 17.7714 13.4039H16.0381V12.3106C16.0381 11.7852 16.1633 11.5184 16.8478 11.5184L17.8406 11.518C17.9686 11.518 18.0723 11.4142 18.0723 11.2863V9.55125C18.0723 9.42344 17.9687 9.31974 17.8409 9.3195Z" fill="white"/>
<defs>
<linearGradient id="paint0_linear_645_5856" x1="15" y1="0" x2="15" y2="30" gradientUnits="userSpaceOnUse">
<stop stop-color="#2BA688"/>
<stop offset="1" stop-color="#0D4F3D"/>
</linearGradient>
</defs>
</svg>
