<svg width="30" height="30" viewBox="0 0 30 30" fill="none" xmlns="http://www.w3.org/2000/svg">
<g id="&#208;&#161;&#208;&#190;&#209;&#134;. &#209;&#129;&#208;&#181;&#209;&#130;&#208;&#184; / &#208;&#162;&#208;&#181;&#208;&#188;&#208;&#189;&#209;&#139;&#208;&#181; &#208;&#183;&#208;&#189;&#208;&#176;&#209;&#135;&#208;&#186;&#208;&#184; / Instagram">
<rect id="Rectangle " width="30" height="30" rx="15" fill="white"/>
<g id="Vector">
<path fill-rule="evenodd" clip-rule="evenodd" d="M9.5 11.7809C9.5 10.368 10.6454 9.22266 12.0583 9.22266H17.9419C19.3548 9.22266 20.5001 10.368 20.5001 11.7809V18.2201C20.5001 19.633 19.3548 20.7784 17.9419 20.7784H12.0583C10.6454 20.7784 9.5 19.633 9.5 18.2201V11.7809ZM12.3556 15.0002C12.3556 13.5275 13.5496 12.3335 15.0223 12.3335C16.4951 12.3335 17.689 13.5275 17.689 15.0002V15.1575C17.689 16.6303 16.4951 17.8242 15.0223 17.8242C13.5496 17.8242 12.3556 16.6303 12.3556 15.1575V15.0002ZM18.1219 10.8894C17.723 10.8894 17.3996 11.2128 17.3996 11.6117C17.3996 12.0105 17.723 12.3339 18.1219 12.3339C18.5207 12.3339 18.8441 12.0105 18.8441 11.6117C18.8441 11.2128 18.5207 10.8894 18.1219 10.8894Z" fill="url(#paint0_radial_186_112)"/>
<path d="M13.3689 15.0005C13.3689 14.0996 14.0992 13.3694 15 13.3694C15.9009 13.3694 16.6312 14.0996 16.6312 15.0005C16.6312 15.9013 15.9009 16.6316 15 16.6316C14.0992 16.6316 13.3689 15.9013 13.3689 15.0005Z" fill="url(#paint1_radial_186_112)"/>
</g>
</g>
<defs>
<radialGradient id="paint0_radial_186_112" cx="0" cy="0" r="1" gradientUnits="userSpaceOnUse" gradientTransform="translate(14.2152 11.5288) rotate(58.3434) scale(9.83572 13.2972)">
<stop stop-color="#C086EC"/>
<stop offset="1" stop-color="#8339B7"/>
</radialGradient>
<radialGradient id="paint1_radial_186_112" cx="0" cy="0" r="1" gradientUnits="userSpaceOnUse" gradientTransform="translate(14.2152 11.5288) rotate(58.3434) scale(9.83572 13.2972)">
<stop stop-color="#C086EC"/>
<stop offset="1" stop-color="#8339B7"/>
</radialGradient>
</defs>
</svg>
