<svg width="22" height="17" viewBox="0 0 22 17" fill="none" xmlns="http://www.w3.org/2000/svg">
<path id="Vector" d="M21.5207 6.00987C21.6616 6.82196 21.554 7.63543 21.2184 8.29955C20.9508 8.83027 20.5506 9.23257 20.0762 9.45942C19.8974 9.54488 19.7113 9.60453 19.5153 9.63823C18.8019 9.75875 18.0546 9.50314 17.4655 8.93633C16.9275 8.4203 16.5567 7.68779 16.4158 6.87549C16.2771 6.06238 16.3847 5.24891 16.7182 4.58581C17.086 3.85675 17.706 3.36898 18.4212 3.24712C19.1347 3.12661 19.8838 3.3813 20.4731 3.94801C21.009 4.46506 21.382 5.19655 21.5207 6.00987ZM7.38114 10.5483C8.12759 10.1914 8.64076 9.435 8.78912 8.47232C8.9242 7.59933 8.75905 6.61912 8.32403 5.71239C7.88851 4.8046 7.2271 4.06194 6.46108 3.61983C5.61684 3.13204 4.70486 3.05713 3.95841 3.41406C3.21004 3.7719 2.69687 4.52827 2.54841 5.49073C2.41524 6.36281 2.5804 7.34302 3.01582 8.2506C3.45094 9.15754 4.11235 9.90019 4.87645 10.3432C5.7208 10.8312 6.63278 10.9061 7.38114 10.5483ZM13.8367 7.46145C14.5851 7.10361 15.0983 6.34725 15.2466 5.38457C15.3798 4.51249 15.2146 3.53228 14.7796 2.62555C14.3441 1.71776 13.6827 0.975109 12.9186 0.532073C12.0743 0.0442877 11.1623 -0.0306194 10.414 0.327223C9.66754 0.684149 9.15437 1.44051 9.0059 2.40298C8.87082 3.27597 9.03598 4.25618 9.4714 5.16376C9.90651 6.0707 10.5679 6.81336 11.3339 7.25547C12.1783 7.74347 13.0903 7.81838 13.8367 7.46145ZM5.30746 12.1876C4.75967 11.5699 4.05723 11.1435 3.33067 10.9872C2.53111 10.8164 1.76178 10.993 1.21839 11.4729C0.675215 11.9533 0.40633 12.6948 0.479258 13.5084C0.546697 14.2494 0.884062 14.9979 1.43164 15.6158C1.9772 16.2343 2.67954 16.6605 3.40822 16.8158C3.99017 16.9402 4.555 16.8811 5.02941 16.6543C5.20601 16.5698 5.37137 16.4614 5.51858 16.331C6.06176 15.8506 6.33065 15.1091 6.25772 14.2955C6.1922 13.5535 5.85313 12.8059 5.30746 12.1876Z" fill="#fff"/>
</svg>
