<svg width="46" height="46" viewBox="0 0 46 46" fill="none" xmlns="http://www.w3.org/2000/svg">
<g clip-path="url(#clip0_59_151)">
<rect width="46" height="46" rx="23" fill="white"/>
<g filter="url(#filter0_ddddd_59_151)">
<path fill-rule="evenodd" clip-rule="evenodd" d="M22.8554 13.8995C21.9765 9.72037 28.329 8.36715 29.2479 12.5064C30.1269 16.6855 23.7744 18.0387 22.8554 13.8995Z" fill="url(#paint0_linear_59_151)"/>
<path fill-rule="evenodd" clip-rule="evenodd" d="M9.35144 30.4168L10.7897 29.8596L13.1869 25.6407L16.3032 23.372L17.6616 24.168L19.0999 23.6506C19.2997 23.2128 19.7392 22.8944 20.2586 22.8944C23.2151 22.8944 24.8931 20.785 25.0529 18.7949C25.3326 15.8099 30.2867 15.2925 30.926 18.2377L32.4442 25.2029C32.6839 26.3571 31.2456 29.1829 30.7662 30.2974H34.322C36.5593 30.2974 36.5593 33.7202 34.322 33.7202H28.2092C27.0106 33.7202 26.1716 32.4864 26.6111 31.372L27.6099 28.9839L25.4924 29.5809L26.2915 33.9192C26.691 36.1481 23.295 36.7451 22.8955 34.5162L21.8167 28.6655C21.4572 26.5561 24.8532 26.1979 26.4513 25.7601L25.8919 23.173C24.7732 24.4864 20.8579 26.2377 19.4595 25.0835L18.2609 25.5213L14.9848 31.77L15.1446 35.1531C15.1846 36.1481 13.7063 36.1879 13.6664 35.2327L13.5465 33.0834L13.1869 35.3919C13.0671 36.3471 11.5888 36.1083 11.7486 35.1531L12.308 31.372L11.3091 30.8148L9.75097 31.4516C9.07177 31.6904 8.67224 30.6954 9.35144 30.4168Z" fill="url(#paint1_linear_59_151)"/>
<path fill-rule="evenodd" clip-rule="evenodd" d="M15.9835 21.78C15.9036 21.8994 15.7838 21.9791 15.7039 22.0587C15.6239 22.1383 16.0235 23.0537 16.0235 23.0537L13.027 25.2427C12.3478 24.2079 11.4289 22.4567 10.51 21.78C9.31139 20.1482 10.7896 19.9094 11.9483 20.9442C12.1081 21.0238 12.3478 20.2278 14.0258 20.2278C14.2256 20.1482 15.4242 18.7552 16.1034 19.0736C16.7826 19.4318 16.8625 20.2278 16.6228 20.8646C16.5029 21.2228 16.2632 21.5412 15.9835 21.78Z" fill="url(#paint2_linear_59_151)"/>
</g>
</g>
<defs>
<filter id="filter0_ddddd_59_151" x="6" y="10" width="33" height="37" filterUnits="userSpaceOnUse" color-interpolation-filters="sRGB">
<feFlood flood-opacity="0" result="BackgroundImageFix"/>
<feColorMatrix in="SourceAlpha" type="matrix" values="0 0 0 0 0 0 0 0 0 0 0 0 0 0 0 0 0 0 127 0" result="hardAlpha"/>
<feOffset/>
<feColorMatrix type="matrix" values="0 0 0 0 0 0 0 0 0 0 0 0 0 0 0 0 0 0 0.1 0"/>
<feBlend mode="normal" in2="BackgroundImageFix" result="effect1_dropShadow_59_151"/>
<feColorMatrix in="SourceAlpha" type="matrix" values="0 0 0 0 0 0 0 0 0 0 0 0 0 0 0 0 0 0 127 0" result="hardAlpha"/>
<feOffset dy="1"/>
<feGaussianBlur stdDeviation="0.5"/>
<feColorMatrix type="matrix" values="0 0 0 0 0 0 0 0 0 0 0 0 0 0 0 0 0 0 0.1 0"/>
<feBlend mode="normal" in2="effect1_dropShadow_59_151" result="effect2_dropShadow_59_151"/>
<feColorMatrix in="SourceAlpha" type="matrix" values="0 0 0 0 0 0 0 0 0 0 0 0 0 0 0 0 0 0 127 0" result="hardAlpha"/>
<feOffset dy="2"/>
<feGaussianBlur stdDeviation="1"/>
<feColorMatrix type="matrix" values="0 0 0 0 0 0 0 0 0 0 0 0 0 0 0 0 0 0 0.09 0"/>
<feBlend mode="normal" in2="effect2_dropShadow_59_151" result="effect3_dropShadow_59_151"/>
<feColorMatrix in="SourceAlpha" type="matrix" values="0 0 0 0 0 0 0 0 0 0 0 0 0 0 0 0 0 0 127 0" result="hardAlpha"/>
<feOffset dy="5"/>
<feGaussianBlur stdDeviation="1.5"/>
<feColorMatrix type="matrix" values="0 0 0 0 0 0 0 0 0 0 0 0 0 0 0 0 0 0 0.05 0"/>
<feBlend mode="normal" in2="effect3_dropShadow_59_151" result="effect4_dropShadow_59_151"/>
<feColorMatrix in="SourceAlpha" type="matrix" values="0 0 0 0 0 0 0 0 0 0 0 0 0 0 0 0 0 0 127 0" result="hardAlpha"/>
<feOffset dy="8"/>
<feGaussianBlur stdDeviation="1.5"/>
<feColorMatrix type="matrix" values="0 0 0 0 0 0 0 0 0 0 0 0 0 0 0 0 0 0 0.01 0"/>
<feBlend mode="normal" in2="effect4_dropShadow_59_151" result="effect5_dropShadow_59_151"/>
<feBlend mode="normal" in="SourceGraphic" in2="effect5_dropShadow_59_151" result="shape"/>
</filter>
<linearGradient id="paint0_linear_59_151" x1="26.0517" y1="10" x2="26.0517" y2="16.4059" gradientUnits="userSpaceOnUse">
<stop stop-color="#2BA688"/>
<stop offset="1" stop-color="#0D4F3D"/>
</linearGradient>
<linearGradient id="paint1_linear_59_151" x1="22.5" y1="16.2743" x2="22.5" y2="36" gradientUnits="userSpaceOnUse">
<stop stop-color="#2BA688"/>
<stop offset="1" stop-color="#0D4F3D"/>
</linearGradient>
<linearGradient id="paint2_linear_59_151" x1="13.4054" y1="19.0264" x2="13.4054" y2="25.2427" gradientUnits="userSpaceOnUse">
<stop stop-color="#2BA688"/>
<stop offset="1" stop-color="#0D4F3D"/>
</linearGradient>
<clipPath id="clip0_59_151">
<rect width="46" height="46" rx="23" fill="white"/>
</clipPath>
</defs>
</svg>
