<svg width="52" height="53" viewBox="0 0 52 53" fill="none" xmlns="http://www.w3.org/2000/svg">
<g filter="url(#filter0_ddd_622_2085)">
<rect x="4" y="1" width="44" height="44" rx="22" fill="url(#paint0_linear_622_2085)"/>
<path d="M16.9268 16C16.415 16 16 16.4179 16 16.9333C16 17.4488 16.415 17.8667 16.9268 17.8667H34.0732C34.585 17.8667 35 17.4488 35 16.9333C35 16.4179 34.585 16 34.0732 16H16.9268ZM16.9268 22.0667C16.415 22.0667 16 22.4845 16 23C16 23.5155 16.415 23.9333 16.9268 23.9333H34.0732C34.585 23.9333 35 23.5155 35 23C35 22.4845 34.585 22.0667 34.0732 22.0667H16.9268ZM16.9268 28.1333C16.415 28.1333 16 28.5512 16 29.0667C16 29.5821 16.415 30 16.9268 30H34.0732C34.585 30 35 29.5821 35 29.0667C35 28.5512 34.585 28.1333 34.0732 28.1333H16.9268Z" fill="white"/>
</g>
<defs>
<filter id="filter0_ddd_622_2085" x="0" y="0" width="52" height="53" filterUnits="userSpaceOnUse" color-interpolation-filters="sRGB">
<feFlood flood-opacity="0" result="BackgroundImageFix"/>
<feColorMatrix in="SourceAlpha" type="matrix" values="0 0 0 0 0 0 0 0 0 0 0 0 0 0 0 0 0 0 127 0" result="hardAlpha"/>
<feOffset/>
<feColorMatrix type="matrix" values="0 0 0 0 0.25098 0 0 0 0 0.25098 0 0 0 0 0.25098 0 0 0 0.15 0"/>
<feBlend mode="normal" in2="BackgroundImageFix" result="effect1_dropShadow_622_2085"/>
<feColorMatrix in="SourceAlpha" type="matrix" values="0 0 0 0 0 0 0 0 0 0 0 0 0 0 0 0 0 0 127 0" result="hardAlpha"/>
<feOffset dy="1"/>
<feGaussianBlur stdDeviation="1"/>
<feColorMatrix type="matrix" values="0 0 0 0 0.25098 0 0 0 0 0.25098 0 0 0 0 0.25098 0 0 0 0.15 0"/>
<feBlend mode="normal" in2="effect1_dropShadow_622_2085" result="effect2_dropShadow_622_2085"/>
<feColorMatrix in="SourceAlpha" type="matrix" values="0 0 0 0 0 0 0 0 0 0 0 0 0 0 0 0 0 0 127 0" result="hardAlpha"/>
<feOffset dy="4"/>
<feGaussianBlur stdDeviation="2"/>
<feColorMatrix type="matrix" values="0 0 0 0 0.25098 0 0 0 0 0.25098 0 0 0 0 0.25098 0 0 0 0.13 0"/>
<feBlend mode="normal" in2="effect2_dropShadow_622_2085" result="effect3_dropShadow_622_2085"/>
<feBlend mode="normal" in="SourceGraphic" in2="effect3_dropShadow_622_2085" result="shape"/>
</filter>
<linearGradient id="paint0_linear_622_2085" x1="26" y1="1" x2="26" y2="45" gradientUnits="userSpaceOnUse">
<stop stop-color="#2CA88A"/>
<stop offset="1" stop-color="#2AA385"/>
</linearGradient>
</defs>
</svg>
