<svg width="46" height="45" viewBox="0 0 46 45" fill="none" xmlns="http://www.w3.org/2000/svg">
<rect width="46" height="45" rx="22.5" fill="white"/>
<g filter="url(#filter0_ddddd_59_158)">
<path d="M21.2859 21.0487C21.602 21.0487 21.8583 20.7924 21.8583 20.4763C21.8583 20.1602 21.602 19.9039 21.2859 19.9039C20.9698 19.9039 20.7135 20.1602 20.7135 20.4763C20.7135 20.7924 20.9698 21.0487 21.2859 21.0487Z" fill="url(#paint0_linear_59_158)"/>
<path d="M21.2859 27.5243C21.602 27.5243 21.8583 27.268 21.8583 26.9519C21.8583 26.6358 21.602 26.3795 21.2859 26.3795C20.9698 26.3795 20.7135 26.6358 20.7135 26.9519C20.7135 27.268 20.9698 27.5243 21.2859 27.5243Z" fill="url(#paint1_linear_59_158)"/>
<path d="M33.9976 21.2344L33.1881 12.3304C33.1758 12.197 33.1172 12.0722 33.0225 11.9775C32.9278 11.8828 32.803 11.8242 32.6696 11.8119L23.7656 11.0024C23.6821 10.9947 23.598 11.0055 23.5191 11.0341C23.4403 11.0626 23.3687 11.1082 23.3095 11.1676L11.1678 23.3094C11.1146 23.3625 11.0724 23.4256 11.0436 23.495C11.0148 23.5645 11 23.6389 11 23.7141C11 23.7893 11.0148 23.8637 11.0436 23.9332C11.0724 24.0026 11.1146 24.0657 11.1678 24.1188L20.8812 33.8322C20.9343 33.8854 20.9974 33.9276 21.0668 33.9564C21.1363 33.9852 21.2107 34 21.2859 34C21.3611 34 21.4355 33.9852 21.505 33.9564C21.5744 33.9276 21.6375 33.8854 21.6906 33.8322L33.8324 21.6905C33.8918 21.6313 33.9374 21.5597 33.9659 21.4809C33.9945 21.402 34.0053 21.3179 33.9976 21.2344ZM30.1898 14.8102C30.3499 14.9703 30.4589 15.1743 30.5031 15.3963C30.5473 15.6184 30.5246 15.8486 30.438 16.0577C30.3513 16.2669 30.2046 16.4457 30.0163 16.5715C29.8281 16.6973 29.6068 16.7644 29.3804 16.7644C29.1539 16.7644 28.9326 16.6973 28.7444 16.5715C28.5561 16.4457 28.4094 16.2669 28.3227 16.0577C28.2361 15.8486 28.2134 15.6184 28.2576 15.3963C28.3018 15.1743 28.4108 14.9703 28.5709 14.8102C28.7857 14.5957 29.0768 14.4752 29.3804 14.4752C29.6839 14.4752 29.975 14.5957 30.1898 14.8102ZM22.5 19.2621C22.7402 19.5023 22.9037 19.8082 22.97 20.1413C23.0362 20.4744 23.0022 20.8196 22.8722 21.1334C22.7423 21.4472 22.5222 21.7153 22.2398 21.904C21.9574 22.0927 21.6255 22.1934 21.2858 22.1934C20.9462 22.1934 20.6142 22.0927 20.3319 21.904C20.0495 21.7153 19.8294 21.4472 19.6994 21.1334C19.5695 20.8196 19.5355 20.4744 19.6017 20.1413C19.668 19.8082 19.8315 19.5023 20.0717 19.2621C20.3939 18.9406 20.8306 18.76 21.2858 18.76C21.7411 18.76 22.1778 18.9406 22.5 19.2621ZM20.0717 28.1661C19.8316 27.9259 19.668 27.62 19.6018 27.2869C19.5355 26.9538 19.5695 26.6086 19.6995 26.2948C19.8295 25.981 20.0496 25.7129 20.3319 25.5242C20.6143 25.3355 20.9463 25.2348 21.2859 25.2348C21.6255 25.2348 21.9575 25.3355 22.2399 25.5242C22.5222 25.7129 22.7423 25.981 22.8723 26.2948C23.0023 26.6086 23.0363 26.9538 22.97 27.2869C22.9038 27.62 22.7402 27.9259 22.5001 28.1661C22.1778 28.4876 21.7412 28.6682 21.2859 28.6682C20.8306 28.6682 20.394 28.4876 20.0717 28.1661ZM26.1426 24.2864H16.4292C16.3533 24.2876 16.2779 24.2737 16.2074 24.2455C16.1369 24.2172 16.0727 24.1753 16.0186 24.122C15.9645 24.0688 15.9215 24.0053 15.8922 23.9352C15.8629 23.8652 15.8478 23.79 15.8478 23.7141C15.8478 23.6382 15.8629 23.563 15.8922 23.493C15.9215 23.4229 15.9645 23.3595 16.0186 23.3062C16.0727 23.2529 16.1369 23.211 16.2074 23.1827C16.2779 23.1545 16.3533 23.1406 16.4292 23.1418H26.1426C26.2185 23.1406 26.2939 23.1545 26.3644 23.1827C26.4349 23.211 26.4991 23.2529 26.5532 23.3062C26.6073 23.3595 26.6502 23.4229 26.6796 23.493C26.7089 23.563 26.724 23.6382 26.724 23.7141C26.724 23.79 26.7089 23.8652 26.6796 23.9352C26.6502 24.0053 26.6073 24.0688 26.5532 24.122C26.4991 24.1753 26.4349 24.2172 26.3644 24.2455C26.2939 24.2737 26.2185 24.2876 26.1426 24.2864Z" fill="url(#paint2_linear_59_158)"/>
</g>
<defs>
<filter id="filter0_ddddd_59_158" x="8" y="11" width="29" height="34" filterUnits="userSpaceOnUse" color-interpolation-filters="sRGB">
<feFlood flood-opacity="0" result="BackgroundImageFix"/>
<feColorMatrix in="SourceAlpha" type="matrix" values="0 0 0 0 0 0 0 0 0 0 0 0 0 0 0 0 0 0 127 0" result="hardAlpha"/>
<feOffset/>
<feColorMatrix type="matrix" values="0 0 0 0 0 0 0 0 0 0 0 0 0 0 0 0 0 0 0.1 0"/>
<feBlend mode="normal" in2="BackgroundImageFix" result="effect1_dropShadow_59_158"/>
<feColorMatrix in="SourceAlpha" type="matrix" values="0 0 0 0 0 0 0 0 0 0 0 0 0 0 0 0 0 0 127 0" result="hardAlpha"/>
<feOffset dy="1"/>
<feGaussianBlur stdDeviation="0.5"/>
<feColorMatrix type="matrix" values="0 0 0 0 0 0 0 0 0 0 0 0 0 0 0 0 0 0 0.1 0"/>
<feBlend mode="normal" in2="effect1_dropShadow_59_158" result="effect2_dropShadow_59_158"/>
<feColorMatrix in="SourceAlpha" type="matrix" values="0 0 0 0 0 0 0 0 0 0 0 0 0 0 0 0 0 0 127 0" result="hardAlpha"/>
<feOffset dy="2"/>
<feGaussianBlur stdDeviation="1"/>
<feColorMatrix type="matrix" values="0 0 0 0 0 0 0 0 0 0 0 0 0 0 0 0 0 0 0.09 0"/>
<feBlend mode="normal" in2="effect2_dropShadow_59_158" result="effect3_dropShadow_59_158"/>
<feColorMatrix in="SourceAlpha" type="matrix" values="0 0 0 0 0 0 0 0 0 0 0 0 0 0 0 0 0 0 127 0" result="hardAlpha"/>
<feOffset dy="5"/>
<feGaussianBlur stdDeviation="1.5"/>
<feColorMatrix type="matrix" values="0 0 0 0 0 0 0 0 0 0 0 0 0 0 0 0 0 0 0.05 0"/>
<feBlend mode="normal" in2="effect3_dropShadow_59_158" result="effect4_dropShadow_59_158"/>
<feColorMatrix in="SourceAlpha" type="matrix" values="0 0 0 0 0 0 0 0 0 0 0 0 0 0 0 0 0 0 127 0" result="hardAlpha"/>
<feOffset dy="8"/>
<feGaussianBlur stdDeviation="1.5"/>
<feColorMatrix type="matrix" values="0 0 0 0 0 0 0 0 0 0 0 0 0 0 0 0 0 0 0.01 0"/>
<feBlend mode="normal" in2="effect4_dropShadow_59_158" result="effect5_dropShadow_59_158"/>
<feBlend mode="normal" in="SourceGraphic" in2="effect5_dropShadow_59_158" result="shape"/>
</filter>
<linearGradient id="paint0_linear_59_158" x1="21.2859" y1="19.9039" x2="21.2859" y2="21.0487" gradientUnits="userSpaceOnUse">
<stop stop-color="#2BA688"/>
<stop offset="1" stop-color="#0D4F3D"/>
</linearGradient>
<linearGradient id="paint1_linear_59_158" x1="21.2859" y1="26.3795" x2="21.2859" y2="27.5243" gradientUnits="userSpaceOnUse">
<stop stop-color="#2BA688"/>
<stop offset="1" stop-color="#0D4F3D"/>
</linearGradient>
<linearGradient id="paint2_linear_59_158" x1="22.5" y1="11" x2="22.5" y2="34" gradientUnits="userSpaceOnUse">
<stop stop-color="#2BA688"/>
<stop offset="1" stop-color="#0D4F3D"/>
</linearGradient>
</defs>
</svg>
