<svg width="17" height="19" viewBox="0 0 17 19" fill="none" xmlns="http://www.w3.org/2000/svg">
<path id="Vector" d="M14.2973 11.7603C13.6829 11.1181 12.9159 11.1181 12.3054 11.7603C11.8398 12.2492 11.3741 12.7381 10.9162 13.2353C10.791 13.3721 10.6853 13.4011 10.5327 13.3099C10.2314 13.1359 9.91048 12.995 9.62089 12.8044C8.27079 11.9053 7.13983 10.7493 6.13801 9.44826C5.64102 8.80188 5.19881 8.10993 4.88966 7.33096C4.82704 7.17351 4.83878 7.06993 4.9601 6.94148C5.42578 6.46499 5.87973 5.97606 6.33759 5.48714C6.97547 4.80761 6.97547 4.01208 6.33368 3.32841C5.96974 2.93893 5.6058 2.55773 5.24186 2.16825C4.86618 1.77048 4.49441 1.36857 4.11481 0.974942C3.50042 0.340997 2.7334 0.340997 2.12292 0.979085C1.65332 1.46801 1.20329 1.96936 0.725857 2.45C0.28365 2.89335 0.0605888 3.43614 0.0136287 4.07008C-0.0607248 5.1018 0.177989 6.0755 0.514537 7.02435C1.20329 8.98833 2.25206 10.7327 3.5239 12.3321C5.24186 14.495 7.29245 16.2062 9.69133 17.4409C10.7714 17.9961 11.8906 18.4229 13.1077 18.4934C13.9451 18.5431 14.673 18.3193 15.2561 17.6274C15.6553 17.155 16.1053 16.7241 16.5279 16.2725C17.1541 15.6012 17.158 14.7891 16.5358 14.1262C15.7922 13.3348 15.0448 12.5475 14.2973 11.7603Z" fill="#8050A3"/>
</svg>
