<svg width="14" height="20" viewBox="0 0 14 20" fill="none" xmlns="http://www.w3.org/2000/svg">
<path d="M6.97819 0C3.11838 0 0 2.98539 0 6.68058C0 7.13987 0.043615 7.57829 0.130842 8.0167C0.654207 11.8163 5.62617 14.5929 7.02181 20C8.39564 14.6764 14 10.7516 14 6.68058H13.9564C13.9564 2.98539 10.838 0 6.97819 0ZM6.97819 2.65136C9.18068 2.65136 10.9688 4.36326 10.9688 6.47182C10.9688 8.58038 9.18068 10.2923 6.97819 10.2923C4.7757 10.2923 2.98754 8.58038 2.98754 6.47182C2.98754 4.36326 4.7757 2.65136 6.97819 2.65136Z" fill="#AD7DD2"/>
<rect x="3.54547" y="3.5" width="6.90909" height="6.75" rx="3.375" stroke="#AD7DD2" stroke-width="2"/>
</svg>
