<svg width="16" height="18" viewBox="0 0 16 18" fill="none" xmlns="http://www.w3.org/2000/svg">
<rect width="16" height="18" fill="#F5F5F5"/>
<g id="&#208;&#179;&#208;&#187;&#208;&#176;&#208;&#178;&#208;&#189;&#208;&#176;&#209;&#143;" clip-path="url(#clip0_0_1)">
<rect width="1920" height="16612" transform="translate(-1086 -3191)" fill="white"/>
<g id="&#208;&#186;&#208;&#178;&#208;&#184;&#208;&#183;">
<g id="Frame 1562">
<rect x="-726" y="-50" width="792" height="484" rx="20" fill="#F9F9F9"/>
<g id="&#209;&#136;&#208;&#176;&#208;&#179;&#208;&#184;">
<g id="&#209;&#136;&#208;&#176;&#208;&#179;&#208;&#184;_2">
<g id="&#208;&#191;&#208;&#190;&#208;&#180;&#208;&#176;&#209;&#128;&#208;&#190;&#208;&#186;">
<path id="Vector" d="M15.3846 3.85588H10.88C11.2492 3.59229 11.5138 3.36726 11.5877 3.29012C12.3077 2.53791 12.3077 1.31637 11.5877 0.564157C10.8677 -0.188053 9.69846 -0.188053 8.97846 0.564157C8.68308 0.872757 8.23385 1.56068 7.91385 2.19716C7.58769 1.56068 7.14462 0.872757 6.84923 0.564157C6.15385 -0.162336 4.93539 -0.162336 4.24 0.564157C3.52 1.31637 3.52 2.53791 4.24 3.29012C4.39385 3.45084 4.64 3.65015 4.92923 3.85588H0.615385C0.276923 3.85588 0 4.14519 0 4.4988V7.07045C0 7.42406 0.276923 7.71337 0.615385 7.71337H15.3846C15.7231 7.71337 16 7.42406 16 7.07045V4.4988C16 4.14519 15.7231 3.85588 15.3846 3.85588ZM9.84615 1.47067C9.96308 1.34208 10.1231 1.28422 10.2831 1.28422C10.4431 1.28422 10.5969 1.34851 10.72 1.47067C10.96 1.7214 10.96 2.12644 10.72 2.37718C10.3385 2.77578 9.21846 3.45727 8.65846 3.62443C8.81846 3.03938 9.47077 1.86927 9.85231 1.47067H9.84615ZM5.10769 1.47067C5.22462 1.34851 5.37846 1.28422 5.54462 1.28422C5.71077 1.28422 5.86462 1.34851 5.98154 1.47067C6.36308 1.86927 7.01538 3.03938 7.17538 3.62443C6.61538 3.45727 5.49539 2.77578 5.11385 2.37718C4.87385 2.12644 4.87385 1.7214 5.11385 1.47067H5.10769Z" fill="url(#paint0_linear_0_1)"/>
<path id="Vector_2" d="M1.23071 17.357C1.23071 17.7106 1.50764 18 1.8461 18H7.38456V8.99915H1.23071V17.357Z" fill="url(#paint1_linear_0_1)"/>
<path id="Vector_3" d="M8.61536 18H14.1538C14.4923 18 14.7692 17.7106 14.7692 17.357V8.99915H8.61536V18Z" fill="url(#paint2_linear_0_1)"/>
</g>
</g>
</g>
</g>
</g>
</g>
<defs>
<linearGradient id="paint0_linear_0_1" x1="8" y1="0" x2="8" y2="7.71337" gradientUnits="userSpaceOnUse">
<stop stop-color="#5A5A5A"/>
<stop offset="1" stop-color="#4D4D4D"/>
</linearGradient>
<linearGradient id="paint1_linear_0_1" x1="4.30764" y1="8.99915" x2="4.30764" y2="18" gradientUnits="userSpaceOnUse">
<stop stop-color="#5A5A5A"/>
<stop offset="1" stop-color="#4D4D4D"/>
</linearGradient>
<linearGradient id="paint2_linear_0_1" x1="11.6923" y1="8.99915" x2="11.6923" y2="18" gradientUnits="userSpaceOnUse">
<stop stop-color="#5A5A5A"/>
<stop offset="1" stop-color="#4D4D4D"/>
</linearGradient>
<clipPath id="clip0_0_1">
<rect width="1920" height="16612" fill="white" transform="translate(-1086 -3191)"/>
</clipPath>
</defs>
</svg>
