<svg width="15" height="15" viewBox="0 0 15 15" fill="none" xmlns="http://www.w3.org/2000/svg">
<path d="M7.16661 12.949C7.35068 12.8477 7.64659 12.8463 7.83352 12.949L11.2604 14.8366C11.9904 15.2387 12.469 14.8729 12.3298 14.0224L11.6754 10.0248C11.6402 9.8098 11.7304 9.51454 11.8813 9.36022L14.6538 6.5292C15.2445 5.92585 15.0605 5.33591 14.2452 5.21186L10.4141 4.62873C10.2081 4.59731 9.96772 4.41622 9.87439 4.21793L8.16097 0.580846C7.79597 -0.194314 7.20335 -0.192916 6.83887 0.580846L5.12545 4.21793C5.03342 4.4135 4.79487 4.59677 4.58604 4.62873L0.754614 5.21186C-0.0616481 5.33614 -0.243656 5.92668 0.346075 6.5292L3.1185 9.36022C3.26737 9.51236 3.36018 9.8068 3.32446 10.0248L2.67007 14.0224C2.53059 14.8743 3.01056 15.2381 3.73975 14.8366L7.16661 12.949Z" fill="#FFD232"/>
</svg>
