<svg width="30" height="30" viewBox="0 0 30 30" fill="none" xmlns="http://www.w3.org/2000/svg">
<rect width="30" height="30" fill="#F5F5F5"/>
<g id="&#208;&#179;&#208;&#187;&#208;&#176;&#208;&#178;&#208;&#189;&#208;&#176;&#209;&#143;" clip-path="url(#clip0_0_1)">
<rect width="1920" height="16612" transform="translate(-1296 -16428)" fill="white"/>
<g id="&#209;&#132;&#209;&#131;&#209;&#130;&#208;&#181;&#209;&#128;">
<rect width="1920" height="372" transform="translate(-1296 -188)" fill="#8050A3"/>
<g id="Frame 1618">
<g id="&#209;&#130;&#208;&#181;&#208;&#187;&#208;&#181;&#209;&#132;&#208;&#190;&#208;&#189;">
<g id="Frame 1617">
<rect width="30" height="30" rx="15" fill="white"/>
<path id="Vector" d="M18.9333 16.758C18.4634 16.2585 17.8769 16.2585 17.41 16.758C17.0539 17.1383 16.6978 17.5186 16.3477 17.9053C16.2519 18.0116 16.1711 18.0342 16.0544 17.9633C15.824 17.8279 15.5786 17.7184 15.3572 17.5701C14.3247 16.8708 13.4599 15.9717 12.6938 14.9598C12.3137 14.457 11.9756 13.9188 11.7391 13.313C11.6913 13.1905 11.7002 13.1099 11.793 13.01C12.1491 12.6394 12.4963 12.2592 12.8464 11.8789C13.3342 11.3504 13.3342 10.7316 12.8434 10.1999C12.5651 9.89694 12.2868 9.60046 12.0085 9.29753C11.7212 8.98815 11.4369 8.67555 11.1466 8.3694C10.6768 7.87633 10.0902 7.87633 9.62341 8.37262C9.2643 8.7529 8.92016 9.14284 8.55507 9.51667C8.21691 9.86149 8.04633 10.2837 8.01042 10.7767C7.95356 11.5792 8.13611 12.3365 8.39347 13.0745C8.92016 14.602 9.72216 15.9588 10.6947 17.2027C12.0085 18.885 13.5766 20.2159 15.411 21.1763C16.237 21.6081 17.0928 21.9401 18.0235 21.9948C18.6639 22.0335 19.2205 21.8595 19.6664 21.3213C19.9717 20.9539 20.3158 20.6188 20.639 20.2675C21.1178 19.7454 21.1208 19.1138 20.645 18.5981C20.0764 17.9826 19.5048 17.3703 18.9333 16.758Z" fill="url(#paint0_radial_0_1)"/>
</g>
</g>
</g>
</g>
</g>
<defs>
<radialGradient id="paint0_radial_0_1" cx="0" cy="0" r="1" gradientUnits="userSpaceOnUse" gradientTransform="translate(13.5724 10.7939) rotate(58.9756) scale(11.8364 15.8205)">
<stop stop-color="#C086EC"/>
<stop offset="1" stop-color="#8339B7"/>
</radialGradient>
<clipPath id="clip0_0_1">
<rect width="1920" height="16612" fill="white" transform="translate(-1296 -16428)"/>
</clipPath>
</defs>
</svg>
