<svg width="30" height="35" viewBox="0 0 30 35" fill="none" xmlns="http://www.w3.org/2000/svg">
<g id="Frame 1715" filter="url(#filter0_ddddd_403_1853)">
<path id="Vector" d="M15 0C12.6266 0 10.3066 0.703788 8.33316 2.02236C6.35977 3.34094 4.8217 5.21509 3.91345 7.4078C3.0052 9.60051 2.76756 12.0133 3.23058 14.3411C3.6936 16.6689 4.83649 18.8071 6.51472 20.4853C8.19295 22.1635 10.3312 23.3064 12.6589 23.7694C14.9867 24.2324 17.3995 23.9948 19.5922 23.0866C21.7849 22.1783 23.6591 20.6402 24.9776 18.6668C26.2962 16.6935 27 14.3734 27 12C27 8.8174 25.7357 5.76515 23.4853 3.51472C21.2348 1.26428 18.1826 0 15 0ZM22.75 13H15C14.7348 13 14.4804 12.8946 14.2929 12.7071C14.1054 12.5196 14 12.2652 14 12V4.25C14 3.98478 14.1054 3.73043 14.2929 3.54289C14.4804 3.35536 14.7348 3.25 15 3.25C15.2652 3.25 15.5196 3.35536 15.7071 3.54289C15.8946 3.73043 16 3.98478 16 4.25V11H22.75C23.0152 11 23.2696 11.1054 23.4571 11.2929C23.6446 11.4804 23.75 11.7348 23.75 12C23.75 12.2652 23.6446 12.5196 23.4571 12.7071C23.2696 12.8946 23.0152 13 22.75 13Z" fill="#8050A3"/>
</g>
<defs>
<filter id="filter0_ddddd_403_1853" x="0" y="0" width="30" height="35" filterUnits="userSpaceOnUse" color-interpolation-filters="sRGB">
<feFlood flood-opacity="0" result="BackgroundImageFix"/>
<feColorMatrix in="SourceAlpha" type="matrix" values="0 0 0 0 0 0 0 0 0 0 0 0 0 0 0 0 0 0 127 0" result="hardAlpha"/>
<feOffset/>
<feColorMatrix type="matrix" values="0 0 0 0 0 0 0 0 0 0 0 0 0 0 0 0 0 0 0.1 0"/>
<feBlend mode="normal" in2="BackgroundImageFix" result="effect1_dropShadow_403_1853"/>
<feColorMatrix in="SourceAlpha" type="matrix" values="0 0 0 0 0 0 0 0 0 0 0 0 0 0 0 0 0 0 127 0" result="hardAlpha"/>
<feOffset dy="1"/>
<feGaussianBlur stdDeviation="0.5"/>
<feColorMatrix type="matrix" values="0 0 0 0 0 0 0 0 0 0 0 0 0 0 0 0 0 0 0.1 0"/>
<feBlend mode="normal" in2="effect1_dropShadow_403_1853" result="effect2_dropShadow_403_1853"/>
<feColorMatrix in="SourceAlpha" type="matrix" values="0 0 0 0 0 0 0 0 0 0 0 0 0 0 0 0 0 0 127 0" result="hardAlpha"/>
<feOffset dy="2"/>
<feGaussianBlur stdDeviation="1"/>
<feColorMatrix type="matrix" values="0 0 0 0 0 0 0 0 0 0 0 0 0 0 0 0 0 0 0.09 0"/>
<feBlend mode="normal" in2="effect2_dropShadow_403_1853" result="effect3_dropShadow_403_1853"/>
<feColorMatrix in="SourceAlpha" type="matrix" values="0 0 0 0 0 0 0 0 0 0 0 0 0 0 0 0 0 0 127 0" result="hardAlpha"/>
<feOffset dy="5"/>
<feGaussianBlur stdDeviation="1.5"/>
<feColorMatrix type="matrix" values="0 0 0 0 0 0 0 0 0 0 0 0 0 0 0 0 0 0 0.05 0"/>
<feBlend mode="normal" in2="effect3_dropShadow_403_1853" result="effect4_dropShadow_403_1853"/>
<feColorMatrix in="SourceAlpha" type="matrix" values="0 0 0 0 0 0 0 0 0 0 0 0 0 0 0 0 0 0 127 0" result="hardAlpha"/>
<feOffset dy="8"/>
<feGaussianBlur stdDeviation="1.5"/>
<feColorMatrix type="matrix" values="0 0 0 0 0 0 0 0 0 0 0 0 0 0 0 0 0 0 0.01 0"/>
<feBlend mode="normal" in2="effect4_dropShadow_403_1853" result="effect5_dropShadow_403_1853"/>
<feBlend mode="normal" in="SourceGraphic" in2="effect5_dropShadow_403_1853" result="shape"/>
</filter>
</defs>
</svg>
