<svg width="21" height="19" viewBox="0 0 21 19" fill="none" xmlns="http://www.w3.org/2000/svg">
<path d="M16.0009 15.0527C14.4596 15.0394 12.988 14.1211 12.988 12.6601V11.8104C13.5954 11.1143 14.2949 10.0389 14.5654 9.16917C14.595 9.02235 14.9316 8.94882 15.0289 8.84868C15.5564 8.34284 15.6588 7.48802 15.265 6.87854C15.2111 6.78681 14.9231 6.70651 14.9282 6.59306C14.9282 5.81668 14.9335 5.03866 14.9282 4.26391C14.9056 3.32717 14.628 2.354 13.946 1.66119C13.3959 1.1019 12.6391 0.768093 11.8583 0.624301C10.8725 0.444095 9.84172 0.453899 8.86461 0.692696C8.01949 0.897879 7.2246 1.37384 6.7318 2.08159C6.29796 2.69621 6.107 3.44085 6.07401 4.17708C6.06187 4.96677 6.07231 5.75809 6.06891 6.54941C6.08784 6.70651 5.75833 6.81505 5.69403 6.94507C5.32279 7.5947 5.48585 8.47939 6.08444 8.95209C6.23536 9.05223 6.45398 9.23594 6.50979 9.39467C6.77014 10.176 7.46603 11.151 8.0127 11.7822V12.6603C8.0127 14.1211 6.57918 15.0313 4.99814 15.053C3.57433 15.074 1.57643 15.9127 0 18.5H21C19.417 15.911 17.3902 15.0663 16.0009 15.0527Z" fill="#8050A3"/>
</svg>
