<svg width="30" height="30" viewBox="0 0 30 30" fill="none" xmlns="http://www.w3.org/2000/svg">
<g id="&#208;&#161;&#208;&#190;&#209;&#134;. &#209;&#129;&#208;&#181;&#209;&#130;&#208;&#184; / &#208;&#162;&#208;&#181;&#208;&#188;&#208;&#189;&#209;&#139;&#208;&#181; &#208;&#183;&#208;&#189;&#208;&#176;&#209;&#135;&#208;&#186;&#208;&#184; / Vk">
<rect id="Rectangle" width="30" height="30" rx="15" fill="white"/>
<path id="icon" fill-rule="evenodd" clip-rule="evenodd" d="M20.0488 16.0766C20.5132 16.53 21.0034 16.9566 21.4199 17.4557C21.6039 17.6775 21.7781 17.9064 21.9113 18.1638C22.1001 18.5297 21.9291 18.9324 21.601 18.9542L19.5615 18.9533C19.0355 18.997 18.6158 18.7852 18.263 18.4255C17.9806 18.1379 17.7191 17.8318 17.4476 17.5345C17.3363 17.4129 17.2198 17.2986 17.0806 17.2082C16.8021 17.0275 16.5605 17.0828 16.4014 17.3732C16.2393 17.6686 16.2026 17.9956 16.1867 18.3248C16.1648 18.805 16.0196 18.9313 15.5372 18.9533C14.5062 19.0019 13.5278 18.8459 12.6188 18.3258C11.8174 17.8673 11.196 17.22 10.6551 16.4872C9.60201 15.0604 8.79553 13.4924 8.0707 11.8806C7.90755 11.5174 8.02687 11.3225 8.42755 11.3156C9.09291 11.3027 9.75817 11.3036 10.4243 11.3147C10.6947 11.3186 10.8737 11.4737 10.9782 11.7292C11.3381 12.6143 11.7786 13.4565 12.3315 14.237C12.4787 14.4449 12.6289 14.6527 12.8427 14.7989C13.0792 14.9609 13.2593 14.9072 13.3705 14.6438C13.4411 14.4767 13.4721 14.2967 13.488 14.1178C13.5407 13.5022 13.5476 12.8877 13.4552 12.2743C13.3984 11.8914 13.1828 11.6436 12.8008 11.5712C12.6058 11.5342 12.6349 11.4617 12.7292 11.3504C12.8932 11.1585 13.0474 11.0391 13.3547 11.0391H15.6597C16.0226 11.1107 16.1032 11.2737 16.1528 11.6388L16.1548 14.1992C16.1509 14.3405 16.2254 14.76 16.48 14.8535C16.6838 14.9202 16.8181 14.7571 16.9404 14.6279C17.4922 14.0422 17.8861 13.35 18.238 12.6332C18.3942 12.318 18.5284 11.9907 18.6586 11.6637C18.755 11.421 18.9063 11.3016 19.1796 11.3069L21.398 11.3088C21.4638 11.3088 21.5304 11.3098 21.5941 11.3207C21.9679 11.3844 22.0703 11.5452 21.9549 11.9103C21.773 12.483 21.419 12.9602 21.0729 13.4397C20.703 13.9516 20.3073 14.446 19.9404 14.961C19.6034 15.4312 19.6301 15.6682 20.0488 16.0766Z" fill="url(#paint0_radial_186_110)"/>
</g>
<defs>
<radialGradient id="paint0_radial_186_110" cx="0" cy="0" r="1" gradientUnits="userSpaceOnUse" gradientTransform="translate(14.001 12.6201) rotate(41.1441) scale(8.72405 13.081)">
<stop stop-color="#C086EC"/>
<stop offset="1" stop-color="#8339B7"/>
</radialGradient>
</defs>
</svg>
