<svg width="129" height="55" viewBox="0 0 129 55" fill="none" xmlns="http://www.w3.org/2000/svg">
<g id="2Gis 1" clip-path="url(#clip0_151_147)">
<g id="Group">
<path id="Vector" d="M54.9285 27.5006C54.9285 24.1256 54.2884 20.9065 53.1724 17.9206C52.8772 27.7486 42.8774 35.3578 37.0066 40.3933H51.7017C53.7559 36.5485 54.9285 32.1622 54.9285 27.5006ZM44.3051 5.86022C39.6523 2.24152 33.8186 0.0654297 27.4648 0.0654297C12.2965 0.0654297 0 12.3492 0 27.5006C0 42.6519 12.2965 54.9353 27.4648 54.9353C34.4106 54.9353 40.7351 52.3393 45.5716 48.0908H25.688L25.6274 42.2578C37.608 31.8536 44.9523 24.8174 44.9523 18.021C44.9523 15.4952 43.9892 12.3078 39.655 12.3078C36.223 12.3078 32.9122 14.2938 33.514 22.5921H26.531C24.7848 12.9707 30.0225 5.33216 40.0152 5.33216C41.5644 5.33216 42.9975 5.51691 44.3051 5.86022Z" fill="#A3C626"/>
<path id="Vector_2" d="M80.4018 19.0281H86.898C87.1201 14.0923 85.455 6.27051 74.7394 6.27051C66.8544 6.27051 61.1353 10.9861 61.1353 20.8031C61.1353 22.1344 61.1903 29.0119 61.1903 33.2826C61.1903 43.9332 68.576 46.2621 74.7946 46.2621C78.5148 46.2621 83.9004 45.4297 86.3986 42.7121V25.7394H74.1834V31.8963H79.6253V39.3844C75.5159 40.7707 68.0201 41.3258 68.0201 31.8963V20.8031C68.0201 14.2024 71.0744 11.9286 74.4606 11.9286C77.9592 11.9286 80.4018 13.7036 80.4018 19.0281ZM128.723 35.5009C129 20.3042 111.567 25.3507 111.732 16.8649C111.787 13.8704 113.731 11.9286 116.897 11.9286C120.283 11.9286 122.281 13.9254 122.226 19.1398H128.611C128.778 14.4243 127.667 6.38218 117.119 6.38218C110.566 6.38218 105.181 9.59979 105.069 16.7543C104.792 31.3408 122.337 26.5713 122.06 35.3907C121.948 38.9957 119.338 40.6039 116.396 40.6039C112.954 40.6039 110.178 38.6072 110.733 32.6169H104.291C103.57 40.5489 107.068 46.207 116.341 46.207C124.169 46.207 128.611 41.8797 128.723 35.5009ZM99.3901 45.7066H92.8393V6.88105H99.3901V45.7066ZM99.3901 45.7066H92.8393V6.88105H99.3901V45.7066Z" fill="url(#paint0_linear_151_147)"/>
</g>
</g>
<defs>
<linearGradient id="paint0_linear_151_147" x1="94.9307" y1="6.27051" x2="94.9307" y2="46.2621" gradientUnits="userSpaceOnUse">
<stop stop-color="#5A5A5A"/>
<stop offset="1" stop-color="#4D4D4D"/>
</linearGradient>
<clipPath id="clip0_151_147">
<rect width="129" height="55" fill="white"/>
</clipPath>
</defs>
</svg>
