<svg width="158" height="52" viewBox="0 0 158 52" fill="none" xmlns="http://www.w3.org/2000/svg">
<g id="google">
<g id="Group 27">
<path id="Vector" d="M67.6146 27.3652C67.6146 34.8465 61.7608 40.3594 54.5769 40.3594C47.3929 40.3594 41.5391 34.8465 41.5391 27.3652C41.5391 19.8312 47.3929 14.3711 54.5769 14.3711C61.7608 14.3711 67.6146 19.8312 67.6146 27.3652ZM61.9073 27.3652C61.9073 22.6902 58.5146 19.4914 54.5769 19.4914C50.6392 19.4914 47.2464 22.6902 47.2464 27.3652C47.2464 31.9935 50.6392 35.2391 54.5769 35.2391C58.5146 35.2391 61.9073 31.9876 61.9073 27.3652Z" fill="#EA4335"/>
<path id="Vector_2" d="M95.741 27.3652C95.741 34.8465 89.8872 40.3594 82.7033 40.3594C75.5193 40.3594 69.6655 34.8465 69.6655 27.3652C69.6655 19.8371 75.5193 14.3711 82.7033 14.3711C89.8872 14.3711 95.741 19.8312 95.741 27.3652ZM90.0337 27.3652C90.0337 22.6902 86.641 19.4914 82.7033 19.4914C78.7656 19.4914 75.3728 22.6902 75.3728 27.3652C75.3728 31.9935 78.7656 35.2391 82.7033 35.2391C86.641 35.2391 90.0337 31.9876 90.0337 27.3652Z" fill="#FBBC05"/>
<path id="Vector_3" d="M122.695 15.1561V38.4847C122.695 48.0809 117.035 52.0002 110.343 52.0002C104.044 52.0002 100.253 47.788 98.8232 44.3432L103.792 42.2751C104.677 44.39 106.845 46.8858 110.337 46.8858C114.621 46.8858 117.275 44.2436 117.275 39.2697V37.4008H117.076C115.799 38.9768 113.338 40.3535 110.232 40.3535C103.734 40.3535 97.7802 34.6942 97.7802 27.4121C97.7802 20.0773 103.734 14.3711 110.232 14.3711C113.332 14.3711 115.793 15.7478 117.076 17.2769H117.275V15.162H122.695V15.1561ZM117.68 27.4121C117.68 22.8366 114.627 19.4914 110.742 19.4914C106.804 19.4914 103.505 22.8366 103.505 27.4121C103.505 31.9407 106.804 35.2391 110.742 35.2391C114.627 35.2391 117.68 31.9407 117.68 27.4121Z" fill="#4285F4"/>
<path id="Vector_4" d="M131.632 1.48242V39.5627H126.065V1.48242H131.632Z" fill="#34A853"/>
<path id="Vector_5" d="M153.324 31.6419L157.754 34.5946C156.324 36.7095 152.879 40.3535 146.925 40.3535C139.542 40.3535 134.028 34.6474 134.028 27.3594C134.028 19.632 139.589 14.3652 146.286 14.3652C153.031 14.3652 156.33 19.7316 157.408 22.6316L158 24.1079L140.626 31.3021C141.956 33.9092 144.025 35.2391 146.925 35.2391C149.832 35.2391 151.847 33.8096 153.324 31.6419ZM139.689 26.9669L151.302 22.1453C150.664 20.5225 148.742 19.3918 146.48 19.3918C143.579 19.3918 139.542 21.952 139.689 26.9669Z" fill="#EA4335"/>
<path id="Vector_6" d="M20.4678 23.9847V18.4718H39.0488C39.2304 19.4326 39.3242 20.5692 39.3242 21.7995C39.3242 25.9356 38.1933 31.05 34.5486 34.694C31.0035 38.3849 26.474 40.3533 20.4737 40.3533C9.35202 40.3533 0 31.2961 0 20.1767C0 9.05724 9.35202 0 20.4737 0C26.6263 0 31.0093 2.4137 34.3025 5.55971L30.4117 9.44976C28.0502 7.23524 24.8508 5.51285 20.4678 5.51285C12.3463 5.51285 5.99444 12.0568 5.99444 20.1767C5.99444 28.2965 12.3463 34.8405 20.4678 34.8405C25.7356 34.8405 28.7358 32.7256 30.6578 30.804C32.2164 29.2456 33.2419 27.0194 33.6462 23.9788L20.4678 23.9847Z" fill="#4285F4"/>
</g>
</g>
</svg>
