<svg width="85" height="85" viewBox="0 0 85 85" fill="none" xmlns="http://www.w3.org/2000/svg">
<path d="M0 42.5C0 19.0273 19.023 0 42.5 0C65.9685 0 85 19.0273 85 42.5C85 65.9727 65.9685 85 42.5 85C19.023 85 0 65.9727 0 42.5Z" fill="#FC3F1D"/>
<path d="M47.9415 24.0804H44.0145C36.815 24.0804 33.0283 27.7269 33.0283 33.1031C33.0283 39.1806 35.6463 42.0281 41.0225 45.6789L45.4638 48.6709L32.701 67.7406H23.164L34.6178 50.6811C28.0303 45.9594 24.3328 41.3736 24.3328 33.6174C24.3328 23.8934 31.1115 17.2549 43.9678 17.2549H56.7305V67.6939H47.9415V24.0804Z" fill="white"/>
</svg>
