<svg width="23" height="18" viewBox="0 0 23 18" fill="none" xmlns="http://www.w3.org/2000/svg">
<g id="Frame 1818">
<path id="Vector" d="M0 16.3512C0 16.7885 0.185594 17.2079 0.515952 17.5171C0.846311 17.8263 1.29437 18 1.76157 18H21.2269C21.6941 18 22.1422 17.8263 22.4725 17.5171C22.8029 17.2079 22.9885 16.7885 22.9885 16.3512V9.36279H0V16.3512Z" fill="white"/>
<path id="Vector_2" d="M21.2269 3.12183H16.4061C16.3261 2.27014 15.9084 1.47734 15.2351 0.899545C14.5618 0.321751 13.6818 0.000837383 12.7684 0H10.2318C9.31835 0.000837383 8.43836 0.321751 7.7651 0.899545C7.09184 1.47734 6.67409 2.27014 6.59412 3.12183H1.77329C1.30609 3.12183 0.858029 3.29555 0.527671 3.60477C0.197312 3.91399 0.0117188 4.33338 0.0117188 4.77068V8.1261H23.0002V4.78167C23.0018 4.56329 22.957 4.3468 22.8684 4.14475C22.7798 3.94271 22.6493 3.75915 22.4843 3.60473C22.3193 3.45031 22.1232 3.3281 21.9074 3.2452C21.6915 3.1623 21.4602 3.12037 21.2269 3.12183ZM8.1355 3.12183C8.29404 2.02259 9.01628 1.43725 10.2318 1.43725H12.7684C13.9957 1.43725 14.7062 2.0116 14.8647 3.12183H8.1355Z" fill="white"/>
</g>
</svg>
